<svg width="158" height="48" viewBox="0 0 158 48" fill="none" xmlns="http://www.w3.org/2000/svg">
<rect width="158" height="48" rx="8" fill="#F4F5F9"/>
<path d="M55 15C55 17.2091 53.2091 19 51 19C48.7909 19 47 17.2091 47 15C47 12.7909 48.7909 11 51 11C53.2091 11 55 12.7909 55 15Z" stroke="#29388E" stroke-width="1.9375" stroke-linecap="round" stroke-linejoin="round"/>
<path d="M39 24C39 26.2091 37.2091 28 35 28C32.7909 28 31 26.2091 31 24C31 21.7909 32.7909 20 35 20C37.2091 20 39 21.7909 39 24Z" stroke="#29388E" stroke-width="1.9375" stroke-linecap="round" stroke-linejoin="round"/>
<path d="M55 33C55 35.2091 53.2091 37 51 37C48.7909 37 47 35.2091 47 33C47 30.7909 48.7909 29 51 29C53.2091 29 55 30.7909 55 33Z" stroke="#29388E" stroke-width="1.9375" stroke-linecap="round" stroke-linejoin="round"/>
<path d="M39.2695 25.9667L47 30.9999" stroke="#29388E" stroke-width="1.9375" stroke-linecap="square" stroke-linejoin="round"/>
<path d="M47.5 17L39.2695 22.5398" stroke="#29388E" stroke-width="1.9375" stroke-linecap="square" stroke-linejoin="round"/>
<path d="M77.6712 31.28C76.6178 31.28 75.6845 31.0933 74.8712 30.72C74.0578 30.3467 73.4178 29.8 72.9512 29.08C72.4978 28.3467 72.2712 27.46 72.2712 26.42V25.92H74.4112V26.42C74.4112 27.4067 74.7045 28.1467 75.2912 28.64C75.8912 29.1333 76.6845 29.38 77.6712 29.38C78.6712 29.38 79.4245 29.1733 79.9312 28.76C80.4378 28.3333 80.6912 27.7867 80.6912 27.12C80.6912 26.68 80.5712 26.32 80.3312 26.04C80.0912 25.76 79.7512 25.54 79.3112 25.38C78.8712 25.2067 78.3445 25.0467 77.7312 24.9L76.9912 24.72C76.0978 24.5067 75.3178 24.2467 74.6512 23.94C73.9978 23.62 73.4912 23.2 73.1312 22.68C72.7712 22.16 72.5912 21.4933 72.5912 20.68C72.5912 19.8533 72.7912 19.1467 73.1912 18.56C73.6045 17.9733 74.1712 17.52 74.8912 17.2C75.6112 16.88 76.4578 16.72 77.4312 16.72C78.4045 16.72 79.2712 16.8867 80.0312 17.22C80.8045 17.5533 81.4112 18.0467 81.8512 18.7C82.2912 19.3533 82.5112 20.1733 82.5112 21.16V21.88H80.3712V21.16C80.3712 20.56 80.2445 20.0733 79.9912 19.7C79.7512 19.3267 79.4112 19.0533 78.9712 18.88C78.5312 18.7067 78.0178 18.62 77.4312 18.62C76.5778 18.62 75.9112 18.8 75.4312 19.16C74.9645 19.5067 74.7312 19.9933 74.7312 20.62C74.7312 21.0467 74.8312 21.4 75.0312 21.68C75.2445 21.9467 75.5512 22.1667 75.9512 22.34C76.3512 22.5133 76.8512 22.6667 77.4512 22.8L78.1912 22.98C79.0978 23.18 79.8978 23.44 80.5912 23.76C81.2845 24.0667 81.8312 24.4867 82.2312 25.02C82.6312 25.5533 82.8312 26.24 82.8312 27.08C82.8312 27.92 82.6178 28.6533 82.1912 29.28C81.7778 29.9067 81.1845 30.4 80.4112 30.76C79.6378 31.1067 78.7245 31.28 77.6712 31.28ZM85.1587 31V17H87.2187V22.54H87.5387C87.672 22.2867 87.8587 22.04 88.0987 21.8C88.352 21.56 88.6787 21.3667 89.0787 21.22C89.492 21.06 90.012 20.98 90.6387 20.98C91.3853 20.98 92.0453 21.1467 92.6187 21.48C93.2053 21.8133 93.6653 22.2867 93.9987 22.9C94.332 23.5 94.4987 24.2267 94.4987 25.08V31H92.4387V25.24C92.4387 24.3867 92.2253 23.76 91.7987 23.36C91.372 22.9467 90.7853 22.74 90.0387 22.74C89.1853 22.74 88.4987 23.02 87.9787 23.58C87.472 24.14 87.2187 24.9533 87.2187 26.02V31H85.1587ZM100.523 31.28C99.8167 31.28 99.1834 31.16 98.6234 30.92C98.0767 30.68 97.6367 30.3267 97.3034 29.86C96.9834 29.3933 96.8234 28.8267 96.8234 28.16C96.8234 27.48 96.9834 26.92 97.3034 26.48C97.6367 26.0267 98.0834 25.6867 98.6434 25.46C99.2167 25.2333 99.8634 25.12 100.583 25.12H103.583V24.48C103.583 23.9067 103.41 23.4467 103.063 23.1C102.717 22.7533 102.183 22.58 101.463 22.58C100.757 22.58 100.217 22.7467 99.8434 23.08C99.47 23.4133 99.2234 23.8467 99.1034 24.38L97.1834 23.76C97.3434 23.2267 97.5967 22.7467 97.9434 22.32C98.3034 21.88 98.7767 21.5267 99.3634 21.26C99.95 20.9933 100.657 20.86 101.483 20.86C102.763 20.86 103.77 21.1867 104.503 21.84C105.237 22.4933 105.603 23.42 105.603 24.62V28.68C105.603 29.08 105.79 29.28 106.163 29.28H107.003V31H105.463C104.997 31 104.617 30.88 104.323 30.64C104.03 30.4 103.883 30.0733 103.883 29.66V29.6H103.583C103.477 29.8 103.317 30.0333 103.103 30.3C102.89 30.5667 102.577 30.8 102.163 31C101.75 31.1867 101.203 31.28 100.523 31.28ZM100.823 29.58C101.65 29.58 102.317 29.3467 102.823 28.88C103.33 28.4 103.583 27.7467 103.583 26.92V26.72H100.703C100.157 26.72 99.7167 26.84 99.3834 27.08C99.05 27.3067 98.8834 27.6467 98.8834 28.1C98.8834 28.5533 99.0567 28.9133 99.4034 29.18C99.75 29.4467 100.223 29.58 100.823 29.58ZM109.006 31V21.14H111.026V22.3H111.346C111.506 21.8867 111.76 21.5867 112.106 21.4C112.466 21.2 112.906 21.1 113.426 21.1H114.606V22.96H113.346C112.68 22.96 112.133 23.1467 111.706 23.52C111.28 23.88 111.066 24.44 111.066 25.2V31H109.006ZM120.909 31.28C119.909 31.28 119.036 31.0733 118.289 30.66C117.542 30.2333 116.956 29.64 116.529 28.88C116.116 28.1067 115.909 27.2133 115.909 26.2V25.96C115.909 24.9333 116.116 24.04 116.529 23.28C116.942 22.5067 117.516 21.9133 118.249 21.5C118.996 21.0733 119.856 20.86 120.829 20.86C121.776 20.86 122.602 21.0733 123.309 21.5C124.029 21.9133 124.589 22.4933 124.989 23.24C125.389 23.9867 125.589 24.86 125.589 25.86V26.64H118.009C118.036 27.5067 118.322 28.2 118.869 28.72C119.429 29.2267 120.122 29.48 120.949 29.48C121.722 29.48 122.302 29.3067 122.689 28.96C123.089 28.6133 123.396 28.2133 123.609 27.76L125.309 28.64C125.122 29.0133 124.849 29.4067 124.489 29.82C124.142 30.2333 123.682 30.58 123.109 30.86C122.536 31.14 121.802 31.28 120.909 31.28ZM118.029 25.06H123.489C123.436 24.3133 123.169 23.7333 122.689 23.32C122.209 22.8933 121.582 22.68 120.809 22.68C120.036 22.68 119.402 22.8933 118.909 23.32C118.429 23.7333 118.136 24.3133 118.029 25.06Z" fill="#283593"/>
</svg>
