<svg width="27" height="29" viewBox="0 0 27 29" fill="none" xmlns="http://www.w3.org/2000/svg">
<path d="M25.6016 5C25.6016 7.20914 23.8107 9 21.6016 9C19.3924 9 17.6016 7.20914 17.6016 5C17.6016 2.79086 19.3924 0.999999 21.6016 1C23.8107 1 25.6016 2.79086 25.6016 5Z" stroke="#29388E" stroke-width="1.9375" stroke-linecap="round" stroke-linejoin="round"/>
<path d="M9 14.1023C9 16.3114 7.20914 18.1023 5 18.1023C2.79086 18.1023 1 16.3114 1 14.1023C1 11.8932 2.79086 10.1023 5 10.1023C7.20914 10.1023 9 11.8932 9 14.1023Z" stroke="#29388E" stroke-width="1.9375" stroke-linecap="round" stroke-linejoin="round"/>
<path d="M25.6016 23.2046C25.6016 25.4137 23.8107 27.2046 21.6016 27.2046C19.3924 27.2046 17.6016 25.4137 17.6016 23.2046C17.6016 20.9955 19.3924 19.2046 21.6016 19.2046C23.8107 19.2046 25.6016 20.9955 25.6016 23.2046Z" stroke="#29388E" stroke-width="1.9375" stroke-linecap="round" stroke-linejoin="round"/>
<path d="M9.26953 15.9668L17.9008 21.6421" stroke="#29388E" stroke-width="1.9375" stroke-linecap="square" stroke-linejoin="round"/>
<path d="M17.8878 6.8645L9.26953 12.5398" stroke="#29388E" stroke-width="1.9375" stroke-linecap="square" stroke-linejoin="round"/>
</svg>
