<svg width="137" height="44" viewBox="0 0 137 44" fill="none" xmlns="http://www.w3.org/2000/svg">
<path opacity="0.8" d="M0 22C0 9.84974 9.84974 0 22 0H114.5C126.65 0 136.5 9.84974 136.5 22C136.5 34.1503 126.65 44 114.5 44H22C9.84973 44 0 34.1503 0 22Z" fill="#F4F5F9"/>
<path d="M26.7331 23.806L36.4615 13.5364L35 12L25.5 22L26.7331 23.806Z" fill="#009F3D"/>
<path d="M35.575 30.3105C35.4645 28.4707 33.9962 27.0005 32.1543 26.8898C32.205 25.1264 33.6211 23.7076 35.3868 23.6577C35.4972 25.4973 36.9656 26.9671 38.8075 27.0777C38.7578 28.8411 37.3407 30.2596 35.575 30.3105Z" fill="#009F3D"/>
<path d="M27.3474 27.2295L37.8002 16.7767C38.6196 15.9573 38.6198 14.6307 37.8002 13.8111L35.2838 11.2947C34.4662 10.4773 33.1359 10.4773 32.3183 11.2947L20.2524 23.3608C20.0749 23.5383 20.0749 23.8258 20.2524 24.0034C20.9647 24.7157 20.9647 25.8749 20.2524 26.587L16.413 30.4261C15.8623 30.9771 15.8623 31.8731 16.413 32.4238L16.6712 32.6819C17.2219 33.2326 18.1182 33.2326 18.6689 32.6819L22.508 28.8428C22.853 28.4978 23.3119 28.3078 23.7999 28.3078C24.2879 28.3078 24.7465 28.4978 25.0916 28.8428C25.2691 29.0201 25.5573 29.0196 25.7344 28.8428L27.3474 27.2295ZM23.7999 21.0986L27.9966 25.2953L27.026 26.2656L22.8294 22.0691L23.7999 21.0986ZM32.961 11.9375C33.4242 11.4743 34.1779 11.4741 34.6413 11.9375L37.1577 14.4539C37.6208 14.9171 37.6208 15.6708 37.1577 16.1341L28.6391 24.6525L24.4424 20.4558L32.961 11.9375ZM22.1868 22.7117L26.3835 26.9083L25.413 27.8789L21.2163 23.6822L22.1868 22.7117ZM21.8654 28.2001L18.0263 32.0394C17.8299 32.2358 17.5102 32.2356 17.3138 32.0394L17.0558 31.7812C16.8594 31.5848 16.8594 31.2653 17.0558 31.0689L20.8949 27.2295C21.3909 26.7335 21.656 26.0926 21.6906 25.4418L23.6518 27.403C22.9768 27.4387 22.3471 27.7184 21.8654 28.2001Z" fill="#283593"/>
<path d="M35.3783 23.203C33.3719 23.2584 31.757 24.8734 31.7016 26.8803C31.6436 29.0531 33.4126 30.8221 35.5859 30.7641C37.5923 30.7088 39.2073 29.0938 39.2626 27.0873C39.3204 24.9234 37.5591 23.1451 35.3783 23.203ZM38.3541 27.0623C38.3122 28.5866 37.0852 29.8136 35.561 29.8558C33.92 29.8992 32.5658 28.5651 32.6101 26.9049C32.652 25.3806 33.8791 24.1535 35.4031 24.1113C37.0539 24.0676 38.3981 25.4106 38.3541 27.0623Z" fill="#283593"/>
<path d="M61.4198 26.224C60.0545 26.224 58.9718 25.84 58.1718 25.072C57.3718 24.2933 56.9718 23.1733 56.9718 21.712V19.088C56.9718 17.6267 57.3718 16.512 58.1718 15.744C58.9718 14.9653 60.0545 14.576 61.4198 14.576C62.7638 14.576 63.7985 14.9493 64.5238 15.696C65.2598 16.4427 65.6278 17.4613 65.6278 18.752V18.848H63.9158V18.704C63.9158 17.9467 63.7078 17.328 63.2918 16.848C62.8865 16.368 62.2625 16.128 61.4198 16.128C60.5665 16.128 59.8998 16.3893 59.4198 16.912C58.9398 17.424 58.6998 18.1387 58.6998 19.056V21.744C58.6998 22.6507 58.9398 23.3653 59.4198 23.888C59.8998 24.4107 60.5665 24.672 61.4198 24.672C62.2625 24.672 62.8865 24.432 63.2918 23.952C63.7078 23.4613 63.9158 22.8427 63.9158 22.096V21.824H65.6278V22.048C65.6278 23.3387 65.2598 24.3573 64.5238 25.104C63.7985 25.8507 62.7638 26.224 61.4198 26.224ZM67.541 26V14.8H72.245C72.9384 14.8 73.5464 14.9227 74.069 15.168C74.6024 15.4027 75.013 15.744 75.301 16.192C75.5997 16.64 75.749 17.1733 75.749 17.792V17.968C75.749 18.672 75.5784 19.2373 75.237 19.664C74.9064 20.08 74.501 20.3733 74.021 20.544V20.8C74.4264 20.8213 74.7517 20.96 74.997 21.216C75.2424 21.4613 75.365 21.8187 75.365 22.288V26H73.621V22.528C73.621 22.24 73.5464 22.0107 73.397 21.84C73.2477 21.6693 73.0077 21.584 72.677 21.584H69.269V26H67.541ZM69.269 20.016H72.053C72.6717 20.016 73.1517 19.8613 73.493 19.552C73.8344 19.232 74.005 18.8 74.005 18.256V18.128C74.005 17.584 73.8344 17.1573 73.493 16.848C73.1624 16.528 72.6824 16.368 72.053 16.368H69.269V20.016ZM77.6504 26V14.8H79.3784V26H77.6504ZM85.8729 26.224C84.5076 26.224 83.4249 25.84 82.6249 25.072C81.8249 24.2933 81.4249 23.1733 81.4249 21.712V19.088C81.4249 17.6267 81.8249 16.512 82.6249 15.744C83.4249 14.9653 84.5076 14.576 85.8729 14.576C87.2169 14.576 88.2516 14.9493 88.9769 15.696C89.7129 16.4427 90.0809 17.4613 90.0809 18.752V18.848H88.3689V18.704C88.3689 17.9467 88.1609 17.328 87.7449 16.848C87.3396 16.368 86.7156 16.128 85.8729 16.128C85.0196 16.128 84.3529 16.3893 83.8729 16.912C83.3929 17.424 83.1529 18.1387 83.1529 19.056V21.744C83.1529 22.6507 83.3929 23.3653 83.8729 23.888C84.3529 24.4107 85.0196 24.672 85.8729 24.672C86.7156 24.672 87.3396 24.432 87.7449 23.952C88.1609 23.4613 88.3689 22.8427 88.3689 22.096V21.824H90.0809V22.048C90.0809 23.3387 89.7129 24.3573 88.9769 25.104C88.2516 25.8507 87.2169 26.224 85.8729 26.224ZM91.9942 26V14.8H93.7222V19.456H93.9782L98.1542 14.8H100.41L95.3542 20.32L100.586 26H98.2662L93.9782 21.248H93.7222V26H91.9942ZM101.885 26V14.8H108.941V16.368H103.613V19.584H108.493V21.152H103.613V24.432H109.021V26H101.885ZM113.494 26V16.368H110.054V14.8H118.662V16.368H115.222V26H113.494Z" fill="#4E5061"/>
</svg>
