<svg width="390" height="434" viewBox="0 0 390 434" fill="none" xmlns="http://www.w3.org/2000/svg">
<path d="M333.77 71.1791C332.591 71.17 331.44 71.1951 330.314 71.2535C327.33 71.3607 324.525 71.6767 321.898 72.2013C319.333 72.6904 316.996 73.2173 314.884 73.7817L310 103.419L314.423 104.668C316.819 104.025 319.421 103.599 322.224 103.388C325.088 103.142 327.93 103.074 330.748 103.183C333.579 103.244 336.231 103.465 338.708 103.848C340.232 104.056 341.598 104.295 342.841 104.558C344.526 105.193 345.898 105.941 346.944 106.806C348.46 107.972 349.49 109.186 350.031 110.446C350.622 111.72 350.824 112.964 350.639 114.178C350.468 115.343 350.088 116.317 349.498 117.1C348.547 118.414 347.2 119.353 345.459 119.916C343.767 120.494 341.816 121.051 339.607 121.588C337.46 122.09 335.18 122.79 332.763 123.691C330.408 124.556 328.094 125.934 325.82 127.824C323.608 129.679 321.542 132.234 319.621 135.49C317.713 138.696 316.2 142.937 315.081 148.213L319.504 149.461L339.848 155.204L344.273 156.453C346.354 153.19 348.694 150.79 351.289 149.255C353.934 147.733 356.654 146.602 359.448 145.861C362.305 145.085 365.175 144.445 368.061 143.94C370.946 143.436 373.67 142.569 376.232 141.341C378.793 140.113 381.128 138.292 383.232 135.879C385.352 133.418 387.066 129.867 388.377 125.226C390.1 119.119 390.451 113.389 389.43 108.037C388.423 102.636 386.371 97.7579 383.275 93.4023C380.179 89.0471 376.179 85.2806 371.272 82.1025C366.416 78.9383 360.983 76.5078 354.974 74.8118C354.259 74.6101 353.556 74.4342 352.853 74.2596C352.095 74.015 351.329 73.7828 350.55 73.5632C346.838 72.5154 343.285 71.8286 339.895 71.5049C337.776 71.3024 335.735 71.1939 333.77 71.1791ZM272.74 100.148C272.224 100.144 271.72 100.155 271.226 100.18C269.918 100.227 268.688 100.366 267.535 100.596C266.411 100.81 265.385 101.041 264.46 101.289L262.318 114.285L264.258 114.832C265.309 114.551 266.45 114.364 267.678 114.271C268.934 114.163 270.181 114.133 271.416 114.181C272.657 114.208 273.821 114.305 274.907 114.473C275.574 114.564 276.174 114.669 276.719 114.784C277.458 115.063 278.059 115.391 278.518 115.77C279.183 116.281 279.635 116.813 279.872 117.366C280.131 117.925 280.22 118.47 280.138 119.002C280.064 119.513 279.897 119.94 279.638 120.284C279.22 120.86 278.63 121.272 277.867 121.518C277.125 121.772 276.269 122.016 275.301 122.252C274.359 122.472 273.359 122.779 272.299 123.174C271.267 123.553 270.253 124.157 269.255 124.986C268.286 125.799 267.379 126.92 266.537 128.347C265.701 129.754 265.037 131.613 264.546 133.926L266.485 134.474L275.407 136.992L277.347 137.54C278.259 136.109 279.285 135.057 280.424 134.383C281.584 133.716 282.776 133.22 284.001 132.895C285.253 132.555 286.512 132.274 287.778 132.053C289.043 131.832 290.237 131.452 291.36 130.913C292.484 130.375 293.508 129.576 294.431 128.519C295.36 127.439 296.112 125.882 296.686 123.847C297.441 121.169 297.596 118.657 297.148 116.309C296.707 113.941 295.807 111.802 294.45 109.892C293.091 107.983 291.337 106.331 289.186 104.937C287.057 103.55 284.674 102.484 282.039 101.741C281.726 101.652 281.417 101.575 281.11 101.498C280.777 101.391 280.441 101.289 280.1 101.193C278.473 100.734 276.914 100.433 275.427 100.291C274.498 100.202 273.603 100.154 272.74 100.148ZM268.042 136.948C267.695 136.942 267.349 136.964 267.005 137.014C266.088 137.149 265.232 137.439 264.434 137.885C263.666 138.315 262.98 138.897 262.381 139.63C261.802 140.369 261.383 141.199 261.123 142.12C260.857 143.062 260.78 143.989 260.894 144.9C261.028 145.817 261.31 146.66 261.741 147.429C262.187 148.226 262.769 148.91 263.487 149.483C264.197 150.077 265.024 150.507 265.967 150.773C266.294 150.865 266.621 150.931 266.947 150.974C267.253 151.11 267.572 151.226 267.907 151.32C268.827 151.581 269.746 151.643 270.664 151.509C271.574 151.396 272.418 151.113 273.193 150.661C273.984 150.237 274.676 149.669 275.27 148.958C275.863 148.247 276.294 147.42 276.56 146.477C276.82 145.556 276.886 144.626 276.757 143.687C276.629 142.749 276.339 141.893 275.887 141.117C275.462 140.327 274.894 139.634 274.183 139.041C273.472 138.446 272.656 138.02 271.735 137.76C271.399 137.665 271.065 137.596 270.733 137.552C270.432 137.418 270.121 137.304 269.794 137.212C269.205 137.046 268.621 136.958 268.042 136.948ZM322.657 155.102C321.998 155.108 321.342 155.159 320.689 155.255C318.597 155.562 316.643 156.223 314.827 157.24C313.073 158.222 311.511 159.549 310.143 161.22C308.824 162.904 307.867 164.797 307.275 166.898C306.667 169.048 306.493 171.161 306.751 173.238C307.057 175.329 307.701 177.252 308.683 179.006C309.7 180.822 311.027 182.384 312.662 183.69C314.284 185.044 316.17 186.025 318.32 186.631C319.066 186.842 319.812 186.992 320.556 187.09C321.253 187.399 321.982 187.665 322.745 187.881C324.846 188.473 326.941 188.617 329.032 188.31C331.11 188.052 333.031 187.408 334.8 186.377C336.603 185.409 338.181 184.114 339.536 182.492C340.891 180.87 341.871 178.984 342.478 176.835C343.071 174.734 343.221 172.614 342.929 170.474C342.636 168.334 341.974 166.38 340.943 164.612C339.975 162.809 338.68 161.23 337.059 159.876C335.436 158.521 333.574 157.548 331.474 156.954C330.708 156.739 329.947 156.582 329.19 156.481C328.506 156.176 327.793 155.915 327.049 155.706C325.571 155.288 324.107 155.087 322.657 155.102Z" fill="#E6E6E6"/>
<path d="M333.77 71.179C332.59 71.1701 331.439 71.1951 330.314 71.2534C327.33 71.3607 324.524 71.6762 321.897 72.2004C319.332 72.69 316.995 73.2171 314.884 73.7817L309.999 103.419C312.396 102.777 314.996 102.35 317.798 102.139C320.664 101.893 323.505 101.825 326.323 101.934C329.154 101.994 331.808 102.216 334.285 102.599C336.824 102.946 338.973 103.369 340.731 103.865C343.419 104.623 345.49 105.603 346.944 106.805C348.46 107.972 349.49 109.185 350.031 110.445C350.621 111.72 350.823 112.964 350.639 114.178C350.468 115.343 350.088 116.317 349.499 117.1C348.547 118.414 347.2 119.353 345.459 119.916C343.767 120.493 341.816 121.051 339.607 121.587C337.46 122.089 335.18 122.79 332.763 123.691C330.408 124.556 328.094 125.934 325.821 127.823C323.608 129.679 321.542 132.234 319.621 135.489C317.713 138.696 316.2 142.937 315.081 148.213L339.85 155.204C341.931 151.941 344.27 149.542 346.866 148.006C349.511 146.485 352.231 145.353 355.025 144.612C357.881 143.836 360.752 143.196 363.637 142.691C366.522 142.187 369.246 141.321 371.808 140.092C374.37 138.864 376.704 137.043 378.809 134.631C380.928 132.169 382.642 128.618 383.953 123.977C385.677 117.87 386.028 112.14 385.006 106.788C383.999 101.387 381.948 96.5091 378.852 92.1536C375.755 87.7984 371.755 84.0316 366.85 80.8538C361.993 77.6893 356.56 75.2593 350.55 73.5629C346.838 72.5151 343.286 71.829 339.896 71.5052C337.777 71.3027 335.736 71.1938 333.77 71.179ZM272.74 100.148C272.224 100.144 271.72 100.155 271.226 100.18C269.917 100.227 268.687 100.366 267.535 100.596C266.411 100.81 265.385 101.041 264.46 101.289L262.318 114.285C263.369 114.003 264.509 113.816 265.738 113.724C266.994 113.616 268.24 113.585 269.475 113.633C270.717 113.66 271.881 113.757 272.967 113.925C274.08 114.077 275.023 114.263 275.794 114.48C276.972 114.813 277.88 115.243 278.518 115.769C279.183 116.281 279.634 116.813 279.872 117.366C280.13 117.925 280.22 118.47 280.138 119.002C280.064 119.513 279.897 119.94 279.638 120.284C279.22 120.86 278.63 121.272 277.867 121.519C277.125 121.772 276.269 122.016 275.301 122.252C274.359 122.472 273.359 122.779 272.299 123.174C271.267 123.553 270.253 124.157 269.255 124.986C268.286 125.8 267.379 126.92 266.537 128.347C265.701 129.753 265.037 131.613 264.546 133.926L275.407 136.992C276.32 135.561 277.345 134.509 278.483 133.836C279.643 133.169 280.837 132.673 282.062 132.348C283.315 132.008 284.573 131.726 285.838 131.505C287.103 131.285 288.297 130.904 289.421 130.366C290.544 129.827 291.567 129.029 292.491 127.971C293.42 126.891 294.172 125.335 294.746 123.299C295.503 120.621 295.656 118.109 295.208 115.762C294.766 113.394 293.867 111.254 292.509 109.345C291.152 107.435 289.398 105.784 287.246 104.39C285.117 103.003 282.734 101.937 280.1 101.193C278.471 100.734 276.914 100.433 275.427 100.291C274.499 100.202 273.603 100.154 272.74 100.148ZM268.042 136.948C267.695 136.942 267.349 136.964 267.005 137.014C266.088 137.149 265.232 137.439 264.434 137.885C263.666 138.316 262.98 138.897 262.381 139.63C261.803 140.369 261.383 141.199 261.123 142.12C260.857 143.063 260.78 143.989 260.894 144.9C261.028 145.817 261.31 146.66 261.741 147.429C262.187 148.226 262.769 148.91 263.487 149.483C264.197 150.077 265.024 150.507 265.967 150.773C266.888 151.033 267.807 151.096 268.723 150.962C269.634 150.848 270.478 150.566 271.252 150.114C272.043 149.689 272.736 149.122 273.329 148.41C273.923 147.699 274.353 146.872 274.62 145.929C274.879 145.008 274.946 144.079 274.817 143.14C274.689 142.202 274.398 141.345 273.947 140.57C273.522 139.779 272.955 139.087 272.243 138.493C271.532 137.899 270.716 137.472 269.794 137.212C269.205 137.046 268.621 136.958 268.042 136.948ZM322.657 155.102C321.998 155.108 321.342 155.159 320.689 155.255C318.597 155.561 316.643 156.223 314.827 157.24C313.073 158.222 311.511 159.548 310.143 161.219C308.824 162.904 307.867 164.797 307.275 166.898C306.668 169.047 306.493 171.161 306.751 173.238C307.057 175.329 307.701 177.252 308.683 179.006C309.7 180.822 311.027 182.384 312.662 183.689C314.284 185.044 316.17 186.025 318.32 186.631C320.421 187.224 322.517 187.368 324.608 187.061C326.685 186.803 328.608 186.159 330.376 185.128C332.178 184.16 333.758 182.865 335.112 181.243C336.466 179.621 337.446 177.735 338.054 175.586C338.647 173.485 338.797 171.365 338.505 169.225C338.212 167.085 337.549 165.131 336.518 163.363C335.551 161.56 334.256 159.981 332.634 158.627C331.012 157.272 329.151 156.298 327.049 155.705C325.571 155.288 324.107 155.087 322.657 155.102Z" fill="#F4F4FA"/>
<path d="M98.7155 0.00174908C97.5363 -0.00711836 96.3848 0.0177311 95.2601 0.0762974C92.2765 0.183428 89.4711 0.499254 86.8438 1.02377C84.2793 1.51303 81.9412 2.03982 79.8299 2.60445L74.9462 32.242L79.3692 33.4905C81.7659 32.848 84.3671 32.4217 87.1697 32.2107C90.0345 31.9646 92.8762 31.8963 95.6935 32.0059C98.5253 32.0664 101.177 32.2875 103.654 32.6702C105.178 32.8789 106.544 33.1179 107.787 33.3803C109.472 34.0156 110.844 34.7635 111.89 35.628C113.407 36.7946 114.436 38.0081 114.978 39.2685C115.567 40.5432 115.77 41.7871 115.585 43.0009C115.415 44.1659 115.034 45.1397 114.444 45.9226C113.493 47.2367 112.146 48.1756 110.405 48.7385C108.712 49.316 106.762 49.8733 104.553 50.4105C102.407 50.9122 100.125 51.6133 97.7087 52.5136C95.3549 53.3786 93.0399 54.7563 90.7657 56.6463C88.5542 58.5015 86.4879 61.0571 84.5672 64.3123C82.6592 67.5191 81.1464 71.76 80.0262 77.0353L84.4509 78.2842L104.795 84.0263L109.219 85.2755C111.301 82.0124 113.64 79.6131 116.236 78.0777C118.88 76.556 121.6 75.4244 124.394 74.6835C127.25 73.9072 130.121 73.267 133.007 72.7627C135.892 72.2583 138.616 71.392 141.178 70.1636C143.74 68.9351 146.074 67.1144 148.179 64.7021C150.298 62.2408 152.013 58.6894 153.323 54.048C155.047 47.9412 155.398 42.2117 154.377 36.8597C153.369 31.4585 151.317 26.5806 148.221 22.2251C145.126 17.8696 141.125 14.1029 136.219 10.9251C131.363 7.76066 125.93 5.33077 119.921 3.63441C119.206 3.43283 118.503 3.25692 117.8 3.08226C117.042 2.83778 116.275 2.60548 115.497 2.38596C111.784 1.33795 108.231 0.651444 104.841 0.327679C102.722 0.125171 100.681 0.0165969 98.7155 0.00174908ZM37.6873 28.97C37.1701 28.9662 36.6653 28.9771 36.172 29.0027C34.8637 29.0498 33.633 29.1882 32.4815 29.4181C31.3568 29.6326 30.3314 29.864 29.4059 30.1116L27.265 43.1074L29.2034 43.6549C30.2547 43.3732 31.3951 43.1864 32.6246 43.0938C33.8805 42.9855 35.1265 42.9557 36.3617 43.0039C37.6032 43.0304 38.7666 43.1272 39.8526 43.2951C40.5208 43.3865 41.1204 43.4916 41.6653 43.6066C42.4039 43.8852 43.0049 44.2131 43.4643 44.592C44.1296 45.1037 44.5804 45.636 44.818 46.1888C45.077 46.7473 45.166 47.2928 45.0844 47.8251C45.0093 48.3359 44.8423 48.763 44.5845 49.1063C44.1667 49.6825 43.5769 50.0941 42.8131 50.341C42.0707 50.5942 41.2153 50.8387 40.2473 51.074C39.3061 51.2942 38.3055 51.6016 37.2456 51.9963C36.2132 52.3758 35.1982 52.9796 34.2014 53.8085C33.2317 54.6219 32.3256 55.7424 31.483 57.1699C30.6465 58.5761 29.9829 60.4358 29.4925 62.7492L31.4322 63.2969L40.3529 65.8148L42.293 66.3623C43.2057 64.9315 44.2315 63.8792 45.3694 63.2059C46.5292 62.5385 47.7215 62.0426 48.9469 61.7177C50.1995 61.3771 51.4586 61.0965 52.7236 60.8755C53.9889 60.6542 55.183 60.2745 56.3064 59.7358C57.4303 59.1971 58.4536 58.3988 59.3766 57.341C60.3059 56.2618 61.0577 54.7046 61.6319 52.6692C62.3879 49.9913 62.5417 47.4788 62.0942 45.1319C61.6521 42.7636 60.7529 40.6248 59.3956 38.7148C58.0379 36.805 56.2829 35.1532 54.1321 33.7601C52.0026 32.3724 49.6208 31.3067 46.9853 30.563C46.6719 30.4744 46.3634 30.3977 46.0557 30.3209C45.7233 30.2138 45.3867 30.1119 45.0456 30.0157C43.4177 29.556 41.8595 29.2551 40.3731 29.1132C39.4439 29.0244 38.5489 28.9765 37.6873 28.97ZM32.988 65.7703C32.6403 65.7645 32.2951 65.7867 31.9511 65.8371C31.0342 65.9713 30.1772 66.2615 29.3812 66.7076C28.6116 67.1382 27.9265 67.7199 27.3272 68.4525C26.7482 69.1913 26.3287 70.021 26.0689 70.9423C25.8033 71.8848 25.7266 72.8118 25.8396 73.7223C25.974 74.6392 26.2561 75.4823 26.6867 76.2514C27.133 77.048 27.7145 77.7328 28.4317 78.3054C29.1428 78.8995 29.9701 79.3292 30.913 79.5954C31.2396 79.6878 31.5667 79.7537 31.8933 79.7963C32.1981 79.9319 32.5182 80.0485 32.8527 80.1429C33.7741 80.4029 34.693 80.4661 35.6094 80.3316C36.5201 80.2184 37.3635 79.936 38.1389 79.4839C38.9296 79.0595 39.6216 78.4915 40.216 77.7802C40.8099 77.069 41.2396 76.2421 41.5057 75.2994C41.7663 74.3784 41.8315 73.4488 41.7032 72.5104C41.5749 71.5721 41.285 70.715 40.833 69.9399C40.4082 69.1493 39.8402 68.457 39.1292 67.8633C38.4177 67.2692 37.6019 66.8421 36.6805 66.582C36.3448 66.4874 36.0111 66.4188 35.6787 66.3745C35.3785 66.2405 35.0667 66.1267 34.7404 66.0346C34.1515 65.8683 33.567 65.7804 32.988 65.7703ZM87.6031 83.9242C86.9445 83.9308 86.2879 83.982 85.6342 84.0778C83.5431 84.3838 81.5894 85.0459 79.7726 86.063C78.0193 87.0446 76.4574 88.371 75.0893 90.0419C73.7691 91.7269 72.8131 93.6198 72.2204 95.7207C71.6137 97.8701 71.4392 99.9837 71.6966 102.061C72.003 104.152 72.6477 106.074 73.6293 107.828C74.646 109.645 75.9728 111.206 77.6089 112.512C79.2306 113.867 81.1167 114.847 83.2663 115.454C84.0124 115.664 84.7577 115.815 85.5022 115.912C86.1988 116.222 86.9276 116.487 87.6906 116.703C89.7915 117.296 91.8871 117.439 93.9782 117.133C96.0557 116.875 97.978 116.231 99.7462 115.2C101.549 114.232 103.128 112.937 104.483 111.315C105.837 109.693 106.817 107.807 107.424 105.657C108.017 103.556 108.168 101.436 107.874 99.296C107.582 97.1564 106.921 95.2025 105.889 93.4347C104.921 91.6313 103.626 90.0526 102.004 88.6982C100.382 87.3436 98.5208 86.37 96.4198 85.7771C95.6548 85.5611 94.893 85.4042 94.1353 85.3034C93.4515 84.9979 92.7392 84.738 91.9956 84.5282C90.5174 84.1109 89.0533 83.9096 87.6031 83.9242Z" fill="#E6E6E6"/>
<path d="M98.7154 0.00175445C97.5363 -0.00711299 96.3847 0.0176333 95.2604 0.0759935C92.276 0.183331 89.4702 0.49895 86.8434 1.02337C84.2784 1.51262 81.9411 2.03972 79.8298 2.60435L74.9461 32.2422C77.3428 31.6 79.942 31.1731 82.7445 30.9624C85.6093 30.7159 88.4506 30.6475 91.2688 30.757C94.0998 30.8176 96.7539 31.0391 99.2306 31.4216C101.77 31.7693 103.919 32.1912 105.677 32.6876C108.364 33.4461 110.436 34.4264 111.89 35.6279C113.407 36.7949 114.436 38.0083 114.977 39.2687C115.567 40.5431 115.77 41.7872 115.585 43.0004C115.415 44.1658 115.034 45.1402 114.444 45.923C113.493 47.237 112.146 48.1755 110.405 48.7389C108.713 49.3159 106.762 49.8731 104.553 50.4103C102.407 50.912 100.126 51.6134 97.7086 52.5135C95.3544 53.3788 93.0403 54.7562 90.7665 56.6464C88.5546 58.5015 86.4882 61.057 84.5671 64.3124C82.6596 67.5191 81.1459 71.7598 80.0266 77.0353L104.796 84.027C106.877 80.7638 109.216 78.3646 111.812 76.8289C114.457 75.3074 117.176 74.1763 119.97 73.4353C122.827 72.6589 125.698 72.0186 128.583 71.5144C131.468 71.01 134.192 70.1437 136.754 68.915C139.317 67.6864 141.65 65.8663 143.755 63.4539C145.874 60.9925 147.589 57.4407 148.899 52.7996C150.623 46.6926 150.974 40.9632 149.953 35.6112C148.945 30.2101 146.893 25.332 143.797 20.9763C140.701 16.621 136.701 12.8545 131.796 9.67665C126.939 6.51241 121.506 4.08191 115.497 2.38586C111.784 1.33785 108.232 0.651758 104.842 0.327788C102.723 0.12528 100.681 0.0167054 98.7154 0.00175445ZM37.6872 28.9705C37.17 28.9668 36.6652 28.9773 36.1723 29.0031C34.8637 29.0503 33.6334 29.1885 32.481 29.4184C31.3563 29.6331 30.3318 29.8642 29.4059 30.1117L27.2641 43.1075C28.315 42.8258 29.4549 42.6389 30.684 42.5463C31.9407 42.4385 33.1863 42.4084 34.4215 42.4562C35.6634 42.483 36.8269 42.5804 37.9124 42.748C39.0264 42.9006 39.9684 43.0854 40.7401 43.3032C41.9184 43.6358 42.8262 44.0656 43.4638 44.5924C44.1291 45.1041 44.5803 45.6361 44.8179 46.1888C45.0761 46.7479 45.1651 47.2933 45.0843 47.8254C45.0097 48.3364 44.8426 48.7632 44.584 49.1064C44.167 49.6828 43.5764 50.0946 42.813 50.3412C42.0706 50.5945 41.2156 50.8388 40.2468 51.0743C39.306 51.2944 38.3055 51.6018 37.2455 51.9968C36.2136 52.376 35.1981 52.9802 34.2013 53.809C33.2316 54.6223 32.3255 55.7427 31.4829 57.1702C30.6465 58.5766 29.9833 60.4363 29.4921 62.7495L40.3536 65.8153C41.2664 64.3846 42.2917 63.3324 43.4304 62.6591C44.5902 61.992 45.7826 61.4956 47.0075 61.1708C48.2601 60.8306 49.5193 60.5497 50.7842 60.3286C52.0496 60.1076 53.2436 59.7277 54.3667 59.1891C55.4906 58.6502 56.5142 57.852 57.4369 56.7943C58.3661 55.7151 59.118 54.1575 59.6925 52.1221C60.4481 49.4446 60.6027 46.9322 60.1544 44.5852C59.7127 42.217 58.8132 40.0779 57.4554 38.1681C56.0981 36.2583 54.344 34.6067 52.1927 33.213C50.0633 31.8256 47.6806 30.7601 45.0455 30.0162C43.4176 29.5568 41.8603 29.2561 40.3738 29.1138C39.4446 29.0251 38.5496 28.9773 37.6872 28.9705ZM32.9879 65.7706C32.6402 65.7648 32.2946 65.7873 31.9506 65.8376C31.0342 65.9721 30.1775 66.262 29.3803 66.708C28.6115 67.1386 27.9268 67.72 27.3267 68.4529C26.7485 69.1916 26.3291 70.0216 26.0692 70.9428C25.8028 71.8854 25.7265 72.8121 25.8399 73.7228C25.9744 74.6397 26.2565 75.4827 26.6866 76.2519C27.1329 77.0485 27.7144 77.7334 28.4321 78.3058C29.1431 78.8997 29.9705 79.3299 30.9125 79.5959C31.8335 79.8562 32.7528 79.9187 33.6696 79.7844C34.5807 79.6712 35.4238 79.3885 36.1991 78.9369C36.9894 78.5123 37.6814 77.9443 38.2754 77.2331C38.8697 76.5218 39.2994 75.6951 39.5659 74.7525C39.8257 73.8311 39.8917 72.9014 39.763 71.9631C39.6348 71.0246 39.3444 70.1678 38.8928 69.393C38.4684 68.6022 37.9004 67.9099 37.189 67.316C36.4779 66.7221 35.6613 66.2948 34.7399 66.035C34.1514 65.8685 33.5665 65.7807 32.9879 65.7706ZM87.6031 83.9243C86.944 83.9309 86.2878 83.9822 85.6345 84.0779C83.5434 84.3844 81.5897 85.0459 79.7725 86.063C78.0188 87.0448 76.4577 88.3712 75.0893 90.0424C73.7694 91.727 72.8134 93.6195 72.2199 95.7207C71.6136 97.8701 71.4388 99.9838 71.6965 102.061C72.0034 104.152 72.6476 106.074 73.6292 107.828C74.6463 109.645 75.9727 111.207 77.6084 112.512C79.2306 113.867 81.1162 114.848 83.2659 115.454C85.3668 116.047 87.4628 116.19 89.5535 115.884C91.631 115.626 93.5537 114.982 95.3215 113.951C97.1246 112.983 98.703 111.688 100.057 110.066C101.412 108.444 102.393 106.558 102.999 104.408C103.593 102.308 103.743 100.187 103.45 98.0474C103.157 95.9077 102.495 93.9538 101.465 92.1859C100.497 90.3827 99.2021 88.8043 97.58 87.4496C95.9574 86.0954 94.0961 85.1212 91.9951 84.5283C90.5178 84.1111 89.0532 83.9099 87.6031 83.9243Z" fill="#F4F4FA"/>
<path d="M192.305 63.675C172.975 63.7777 161.446 70.3751 154.334 79.8704C153.145 81.076 151.837 82.6107 150.509 84.5498C145.932 91.2331 141.133 102.689 140.216 121.783C139.849 129.43 135.95 136.058 132.295 142.565C128.64 149.072 125.225 155.461 125.886 162.63C125.889 162.658 125.902 162.684 125.924 162.702C125.945 162.72 125.973 162.729 126.002 162.726C126.029 162.723 126.055 162.71 126.073 162.688C126.09 162.667 126.099 162.639 126.096 162.611C125.441 155.519 128.824 149.173 132.478 142.669C136.132 136.164 140.055 129.507 140.425 121.794C141.341 102.731 146.129 91.3167 150.681 84.669C151.601 83.3265 152.51 82.1816 153.377 81.2041C142.882 96.4608 142.814 118.397 140.26 133.27C137.43 139.784 133.514 146.258 130.783 152.725C128.718 157.613 127.331 162.502 127.617 167.406C127.903 172.31 129.867 177.226 134.48 182.155L134.635 182.011C130.049 177.112 128.112 172.251 127.828 167.394C127.544 162.537 128.917 157.68 130.976 152.807C133.587 146.624 137.3 140.42 140.103 134.158C139.907 135.23 139.698 136.268 139.467 137.256C137.463 145.843 125.143 155.949 130.905 175.055C131.966 178.571 139.481 182.529 146.721 182.084C145.534 176.094 147.047 172.328 149.505 169.34C147.653 173.386 147.558 178.531 149.786 185.115L149.984 185.048C147.662 178.188 147.881 172.943 149.967 168.87C148.84 174.381 148.656 180.396 151.239 185.347C165.967 189.866 216.67 190.3 236.843 183.841C239.477 179.471 238.755 173.142 236.921 169.031C241.058 172.877 241.017 176.723 242.601 180.569C245.875 180.605 253.457 177.92 254.494 172.936C255.742 166.945 254.717 161.027 251.717 155.096C253.629 157.753 255.071 160.571 255.805 163.498C256.869 167.743 256.451 172.217 253.823 176.784L254.005 176.89C256.658 172.279 257.084 167.739 256.008 163.448C255.168 160.097 253.413 156.899 251.098 153.923C250.42 152.688 249.659 151.452 248.814 150.215C245.434 145.265 250.626 140.389 249.524 134.594C247.694 124.97 240.34 117.856 237.986 97.4942C237.059 89.4803 233.896 82.1964 228.786 76.4788C235.989 83.225 239.213 92.5791 240.32 104.519C240.956 111.383 244.199 116.695 247.11 121.334C250.02 125.973 252.584 129.934 251.936 134.098C251.282 138.304 250.063 141.913 249.969 145.378C249.875 148.844 250.923 152.164 254.78 155.74L254.923 155.586C251.098 152.042 250.085 148.804 250.178 145.384C250.271 141.964 251.487 138.358 252.145 134.131C252.808 129.864 250.198 125.859 247.289 121.222C244.38 116.585 241.16 111.308 240.529 104.5C239.338 91.6464 235.674 81.7359 227.249 74.8614C220.837 68.5407 211.802 64.4735 200.605 64C197.689 63.7664 194.925 63.6614 192.305 63.675Z" fill="#241C1C"/>
<path d="M177.346 169.514C176.458 175.923 177.167 183.436 174.044 188.194C171.868 191.51 162.322 193.651 157.294 194.275C159.007 215.883 171.295 231.206 190.496 231.071C215.378 230.896 225.549 217.146 228.007 194.275C221.857 193.011 213.812 192.123 210.72 188.115C206.916 183.184 207.903 175.658 207.082 169.514H177.346Z" fill="#FFB380"/>
<path d="M158.687 93.729V146.681C158.687 162.954 171.788 176.055 188.061 176.055H196.365C212.638 176.055 225.739 162.954 225.739 146.681V93.729H201.448H158.687Z" fill="#FFB380"/>
<path d="M225.396 140.264C225.876 140.335 226.36 140.371 226.844 140.371C229.464 140.371 231.977 139.33 233.829 137.478C235.682 135.626 236.723 133.113 236.723 130.494C236.723 127.874 235.682 125.361 233.83 123.508C231.977 121.656 229.465 120.615 226.844 120.615C226.36 120.616 225.876 120.652 225.396 120.723V140.264Z" fill="#FFB380"/>
<path d="M159.946 140.264C159.467 140.335 158.983 140.371 158.498 140.371C155.878 140.371 153.366 139.33 151.513 137.478C149.66 135.626 148.62 133.113 148.62 130.494C148.619 127.874 149.66 125.361 151.513 123.508C153.365 121.656 155.878 120.615 158.498 120.615C158.983 120.616 159.467 120.652 159.946 120.723V140.264Z" fill="#FFB380"/>
<path d="M176.445 173.728C187.289 177.065 197.823 177.463 207.922 173.728C196.206 180.134 186.062 178.307 176.445 173.728Z" fill="#FF9955"/>
<path d="M148.657 129.358C148.625 122.891 157.69 118.451 160.058 128.407C163.966 103.954 195.638 115.742 205.145 94.2956C214.01 109.911 220.801 111.286 224.731 128.407C227.184 119.696 235.391 122.387 236.634 129.358C241.667 108.233 234.044 92.9412 220.766 83.2056H170.353C153.36 87.2508 146.305 107.853 148.657 129.358Z" fill="#241C1C"/>
<path d="M194.173 71.8825C193.787 71.886 193.401 71.8934 193.017 71.9042C182.267 72.2075 172.617 75.3718 164.732 83.3285C155.722 92.4223 149.024 107.753 145.556 132.182C144.501 139.61 140.069 146.616 136.619 153.86C133.17 161.104 130.707 168.606 133.671 176.993C133.685 177.034 133.716 177.068 133.755 177.088C133.795 177.107 133.84 177.11 133.882 177.095C133.924 177.08 133.958 177.05 133.977 177.01C133.996 176.97 133.998 176.924 133.983 176.882C131.06 168.608 133.481 161.221 136.919 154.002C140.357 146.783 144.815 139.756 145.884 132.229C149.347 107.84 156.03 92.5814 164.967 83.5619C173.904 74.5425 185.103 71.7368 197.676 72.2762C197.72 72.278 197.763 72.2622 197.795 72.2323C197.828 72.2024 197.847 72.1609 197.848 72.1168C197.852 72.0255 197.781 71.9485 197.69 71.9446C196.506 71.8935 195.334 71.8719 194.173 71.8825ZM203.003 72.1619C202.999 72.1619 202.996 72.1619 202.993 72.1623C202.912 72.1682 202.848 72.2319 202.84 72.3125C202.832 72.4034 202.898 72.4839 202.989 72.493C213.036 73.4369 219.404 77.0339 223.975 83.6151C228.546 90.1966 231.308 99.785 234.047 112.687C236.703 125.2 243.863 134.227 242.202 149.412C240.507 157.73 242.836 165.524 248.258 172.875C248.285 172.911 248.324 172.934 248.367 172.941C248.411 172.948 248.455 172.936 248.491 172.91C248.526 172.884 248.55 172.845 248.556 172.802C248.563 172.758 248.552 172.714 248.526 172.678C243.14 165.376 240.848 157.69 242.53 149.463C242.53 149.458 242.53 149.453 242.53 149.448C244.203 134.146 237.006 125.044 234.368 112.618C231.627 99.7047 228.866 90.0795 224.245 83.4258C219.624 76.7718 213.13 73.1125 203.018 72.1623C203.013 72.1619 203.008 72.1616 203.003 72.1619ZM198.181 79.7257C198.177 79.7257 198.174 79.7258 198.17 79.726C181.859 81.1337 172.497 87.5965 166.6 95.5934C160.704 103.591 158.262 113.109 155.727 120.633C155.713 120.675 155.717 120.721 155.736 120.76C155.756 120.8 155.79 120.83 155.832 120.844C155.874 120.857 155.92 120.854 155.959 120.834C155.998 120.815 156.028 120.78 156.042 120.738C158.584 113.195 161.02 103.721 166.868 95.7907C172.715 87.8597 181.963 81.4582 198.198 80.0571C198.242 80.0536 198.283 80.0325 198.312 79.9989C198.34 79.9653 198.354 79.9217 198.35 79.8778C198.343 79.7903 198.269 79.7237 198.181 79.7257ZM205.467 80.2281C205.386 80.2274 205.317 80.2851 205.302 80.3644C205.294 80.4076 205.304 80.4525 205.329 80.4889C205.354 80.525 205.392 80.5499 205.435 80.5579C213.019 81.9505 218.417 87.8319 222.422 95.4533C226.428 103.075 229.025 112.42 231.005 120.672C231.015 120.715 231.042 120.752 231.079 120.776C231.117 120.799 231.163 120.806 231.206 120.795C231.248 120.785 231.285 120.758 231.308 120.72C231.331 120.682 231.338 120.637 231.327 120.594C229.346 112.334 226.747 102.967 222.717 95.2988C218.687 87.6311 213.215 81.6482 205.495 80.2308C205.486 80.2289 205.476 80.2281 205.467 80.2281ZM197.555 86.4183C197.552 86.4183 197.548 86.4183 197.544 86.4185C197.473 86.4226 197.413 86.471 197.394 86.5392C195.976 91.5145 193.845 94.5986 191.246 96.7311C188.648 98.8637 185.571 100.046 182.261 101.179C175.64 103.446 168.083 105.526 161.738 114.714C161.686 114.79 161.705 114.893 161.781 114.945C161.856 114.997 161.959 114.979 162.011 114.903C168.301 105.797 175.733 103.764 182.368 101.493C185.686 100.357 188.805 99.1638 191.456 96.9879C194.108 94.8122 196.282 91.6547 197.714 86.6298C197.739 86.5417 197.688 86.4502 197.6 86.4251C197.586 86.4208 197.571 86.4183 197.555 86.4183ZM205.839 87.3822C205.779 87.3833 205.724 87.4169 205.695 87.4702C205.674 87.5092 205.67 87.555 205.683 87.5975C205.696 87.6399 205.725 87.6752 205.764 87.6959C216.597 93.4438 219.383 105.941 224.773 116.369C224.815 116.45 224.915 116.482 224.996 116.441C225.036 116.42 225.065 116.385 225.079 116.343C225.092 116.301 225.088 116.256 225.068 116.216C219.706 105.843 216.908 93.2317 205.92 87.4017C205.895 87.3887 205.867 87.382 205.839 87.3822ZM152.287 141.092C152.206 141.092 152.137 141.152 152.123 141.232C150.938 148.594 146.863 154.01 143.642 159.593C140.421 165.177 138.066 170.948 140.412 178.937C140.425 178.98 140.454 179.015 140.492 179.036C140.531 179.057 140.576 179.063 140.619 179.05C140.661 179.038 140.697 179.009 140.718 178.97C140.739 178.931 140.744 178.886 140.731 178.843C138.414 170.953 140.723 165.318 143.93 159.759C147.137 154.201 151.252 148.739 152.452 141.284C152.459 141.241 152.448 141.196 152.422 141.161C152.397 141.125 152.357 141.101 152.314 141.094C152.305 141.093 152.296 141.092 152.287 141.092ZM233.405 143.045C233.319 143.048 233.25 143.116 233.245 143.202C233.245 143.202 232.71 152.632 235.38 163.133C235.403 163.222 235.493 163.275 235.581 163.253C235.67 163.23 235.724 163.14 235.702 163.052C233.046 152.606 233.576 143.22 233.576 143.22C233.581 143.129 233.511 143.05 233.42 143.045C233.415 143.045 233.41 143.045 233.405 143.045ZM225.599 156.358C225.587 156.358 225.574 156.359 225.562 156.362C225.519 156.372 225.482 156.399 225.459 156.436C225.435 156.473 225.428 156.519 225.438 156.562C227.572 165.746 229.46 174.918 226.505 184.522C226.493 184.564 226.497 184.609 226.517 184.648C226.538 184.687 226.574 184.716 226.616 184.729C226.703 184.756 226.796 184.707 226.823 184.62C229.807 174.922 227.896 165.676 225.761 156.486C225.743 156.411 225.676 156.358 225.599 156.358ZM159.389 158.31C159.319 158.31 159.256 158.355 159.233 158.422C153.712 174.094 158.527 184.994 158.527 184.994C158.545 185.034 158.578 185.065 158.619 185.081C158.66 185.097 158.706 185.096 158.746 185.078C158.787 185.06 158.818 185.027 158.834 184.986C158.85 184.945 158.848 184.899 158.83 184.859C158.83 184.859 154.06 174.102 159.545 158.532C159.575 158.446 159.53 158.351 159.444 158.321C159.426 158.314 159.408 158.311 159.389 158.31Z" fill="#483E37"/>
<path d="M191.724 126.599C191.671 126.598 191.618 126.602 191.566 126.613C191.187 126.69 190.942 127.059 191.019 127.439C191.019 127.439 192.015 132.399 189.309 137.354C188.615 138.623 188.153 139.859 187.998 141.019C187.844 142.18 188.007 143.291 188.621 144.183C189.235 145.076 190.266 145.686 191.624 145.957C192.982 146.227 194.688 146.187 196.822 145.801C197.005 145.768 197.168 145.663 197.274 145.51C197.38 145.357 197.421 145.168 197.387 144.984C197.318 144.604 196.954 144.351 196.573 144.42C194.553 144.786 193.004 144.802 191.898 144.582C190.792 144.362 190.151 143.933 189.777 143.389C189.403 142.846 189.266 142.126 189.388 141.204C189.51 140.282 189.904 139.186 190.538 138.026C193.504 132.598 192.394 127.161 192.394 127.161C192.329 126.84 192.051 126.607 191.724 126.599Z" fill="#FF9955"/>
<path d="M186.304 157.13C190.596 152.865 194.506 152.976 199.117 157.27C199.425 157.614 199.058 158.238 198.603 158.139C194.446 157.032 190.487 157.019 186.728 158.099C186.123 158.197 185.929 157.475 186.304 157.13Z" fill="#FF5555"/>
<circle cx="177.269" cy="128.299" r="4.00451" fill="#241C1C"/>
<path d="M184.515 117.59C184.18 117.595 183.869 117.765 183.684 118.045C183.467 118.371 183.453 118.417 183.279 118.479C183.106 118.54 182.564 118.603 181.387 118.251C178.484 117.384 173.74 117.478 169.724 118.623C169.464 118.697 169.244 118.871 169.113 119.107C168.982 119.344 168.949 119.623 169.024 119.882C169.098 120.142 169.272 120.362 169.508 120.494C169.744 120.625 170.023 120.657 170.283 120.583C173.889 119.554 178.583 119.54 180.803 120.203C182.189 120.617 183.157 120.682 183.958 120.399C184.759 120.116 185.183 119.471 185.382 119.171C185.532 118.946 185.585 118.67 185.532 118.405C185.478 118.14 185.321 117.908 185.096 117.759C184.924 117.645 184.721 117.586 184.515 117.59Z" fill="#241F1C"/>
<circle cx="208.073" cy="128.3" r="4.00451" fill="#241C1C"/>
<path d="M200.767 117.591C200.58 117.598 200.4 117.657 200.245 117.76C199.776 118.071 199.648 118.703 199.959 119.172C200.158 119.472 200.581 120.117 201.382 120.4C202.183 120.683 203.151 120.618 204.537 120.203C206.758 119.54 211.452 119.555 215.058 120.584C215.318 120.658 215.597 120.626 215.833 120.494C216.069 120.363 216.244 120.143 216.317 119.883C216.392 119.623 216.36 119.345 216.228 119.108C216.097 118.872 215.877 118.698 215.617 118.624C211.602 117.478 206.857 117.385 203.954 118.252C202.777 118.604 202.234 118.541 202.061 118.479C201.888 118.418 201.873 118.372 201.657 118.046C201.46 117.749 201.122 117.576 200.767 117.591Z" fill="#241F1C"/>
<path d="M129.334 372.706C129.329 391.838 114.44 414.265 112.721 433.852H281.356C279.012 416.755 269.331 389.159 264.399 371.2L129.334 372.706Z" fill="#03061F"/>
<path d="M273.805 282.441C267.908 296.579 269.675 310.971 269.429 325.326C267.653 342.802 275.897 369.295 262.04 375.898L243.924 379.954C218.68 399.27 155.986 392.359 141.352 375.416C131.385 374.099 121.598 372.282 122.35 363.88C123.103 355.468 129.676 343.491 132.197 332.778L125.923 346.895C124.797 350.439 122.535 353.288 119.365 355.583C109.612 365.89 101.907 358.7 98.1582 353.964L83.5942 335.568C78.6828 332.344 74.8591 329.022 74.9069 325.348C74.4603 317.104 69.8235 311.467 70.3201 303.007L96.2844 295.283C100.217 267.727 99.2597 240.359 109.685 214.831C121.182 196.807 136.293 200.171 157.21 194.273C179.01 221.101 207.464 223.059 228.005 194.273C240.984 195.813 258.108 198.374 270.455 206.963C273.687 208.754 271.227 213.993 280.604 217.703C294.444 231.221 309.793 245.866 322.068 264.707C326.836 268.051 329.825 272.729 332.032 277.994C340.105 287.713 354.92 304.222 358.828 319.121C359.679 321.77 359.334 323.258 358.893 325.73C356.107 337.279 348.663 352.99 345.63 366.49C333.466 362.284 318.414 354.086 308.175 353.596C307.715 353.438 307.64 352.695 307.86 352.18C311.346 344.518 314.04 337.29 318.259 331.092C319.082 329.879 319.145 327.228 321.481 326.274C320.419 325.613 318.859 325.359 319.854 323.022C318.251 322.78 318.434 321.943 318.289 321.215C312.251 320.605 304.989 309.023 302.028 302.185C295.285 298.729 291.309 292.508 286.009 287.61C282.615 285.31 277.82 284.818 273.805 282.441Z" fill="#6871B3"/>
<path d="M321.481 326.274C326.851 319.651 342.579 324.406 351.79 322.255C342.469 325.333 328.346 321.562 321.481 326.274Z" fill="#283593"/>
<path d="M319.854 323.023C326.643 318.53 334.008 316.228 341.595 314.772C334.666 314.964 326.005 316.598 319.854 323.023Z" fill="#283593"/>
<path d="M318.287 321.216C324.354 316.32 332.668 312.879 340.57 309.171C334.667 311.229 322.929 315.353 317.254 320.988C317.592 321.166 317.939 321.195 318.287 321.216Z" fill="#283593"/>
<path d="M273.351 273.31C278.254 277.239 283.177 282.466 286.009 287.611L273.351 273.31Z" fill="#283593"/>
<path d="M302.028 302.185C300.043 295.672 301.585 290.651 302.394 285.319C302.02 291.092 301.332 297.054 302.028 302.185Z" fill="#283593"/>
<path d="M332.033 277.996C333.019 284.874 333.999 291.744 334.67 298.151C334.997 291.247 333.783 284.58 332.033 277.996Z" fill="#283593"/>
<path d="M270.455 206.963C266.741 231.038 265.285 255.113 269.263 279.187C267.132 254.724 268.454 230.792 270.455 206.963Z" fill="#283593"/>
<path d="M273.804 282.443C272.318 282.099 271.198 281.114 270.018 280.234C266.234 295.051 269.001 306.593 269.262 319.387C269.019 306.135 269.299 293.162 273.804 282.443Z" fill="#283593"/>
<path d="M345.63 366.49C345.423 366.919 344.645 366.913 344.214 366.805L334.346 363.87L335.572 362.288L345.63 366.49Z" fill="#283593"/>
<path d="M40.2416 260.961C34.9181 259.442 34.3881 256.751 30.5324 254.658L40.2416 260.961ZM30.5324 254.658C27.2834 253.293 23.0508 252.911 18.9867 252.333C16.703 251.942 15.8034 251.578 14.0442 249.969C7.7509 244.207 5.64401 240.722 0.425099 236.858C-0.867975 235.637 1.00004 233.489 3.19308 233.706C7.53257 233.925 14.1568 239.694 19.1623 243.501C19.8871 243.657 20.5234 243.627 20.9934 243.246C20.2315 242.289 19.6558 241.301 19.3751 240.265C17.6355 232.946 15.7174 225.548 12.7958 218.376C12.0054 215.893 16.3452 213.908 18.9919 217.439C22.1613 221.669 24.1956 226.799 25.6351 232.642C28.1722 233.06 30.3011 233.926 32.3209 235.069C33.0798 227.536 34.71 219.566 36.7496 211.392C39.001 209.439 41.328 211.292 41.6043 213.011C42.381 218.083 40.5667 226.864 40.4151 234.012C41.0919 236.234 42.811 238.339 43.4866 240.938C43.6964 241.34 45.3179 241.367 45.6697 241.164C45.4508 239.313 44.8282 237.198 44.9621 235.397C45.8736 229.785 46.8923 223.144 48.3647 217.691C49.2245 216.061 52.0705 216.476 52.7007 218.655C53.3978 223.483 52.797 225.537 52.5803 228.532C52.378 231.328 52.5617 234.483 52.7082 237.583L55.1414 242.865C64.0309 246.269 71.8048 251.886 76.8504 262.016C83.0399 273.346 88.8155 285.02 96.2829 295.284C98.8942 300.051 99.546 304.342 99.1935 308.388C96.6648 311.109 91.8982 328.458 83.4149 329.828C78.0992 321.458 71.8301 313.66 70.3187 303.008C65.9845 289.81 62.4105 274.136 56.7103 269.858C51.6431 266.055 46.0387 262.969 40.2416 260.961L30.5324 254.658Z" fill="#FFB380"/>
<path d="M21.164 243.214C21.11 243.216 21.0589 243.238 21.0204 243.276C20.9347 243.36 20.9335 243.498 21.0178 243.584C24.5482 247.17 28.2884 249.649 31.5014 254.37C31.5687 254.469 31.7038 254.495 31.803 254.428C31.8508 254.395 31.8837 254.345 31.8946 254.288C31.9054 254.231 31.8932 254.173 31.8607 254.125C28.5994 249.333 24.8206 246.827 21.328 243.278C21.2848 243.235 21.2252 243.212 21.164 243.214Z" fill="#FF9955"/>
<path d="M25.6912 232.646C25.672 232.646 25.6527 232.648 25.6343 232.653C25.5787 232.669 25.5316 232.706 25.5034 232.756C25.4751 232.807 25.4681 232.866 25.4838 232.921C25.9099 234.444 26.4354 235.895 27.3353 237.036C27.3505 237.055 27.369 237.071 27.3897 237.084C29.6212 238.494 32.1634 240.074 34.4814 243.349C34.5147 243.396 34.5653 243.428 34.6223 243.438C34.6792 243.448 34.7376 243.435 34.7847 243.401C34.8823 243.331 34.9055 243.197 34.8365 243.099C32.4846 239.776 29.8871 238.151 27.6668 236.748C26.8345 235.686 26.3209 234.299 25.9028 232.804C25.8762 232.709 25.7895 232.644 25.6912 232.646Z" fill="#FF9955"/>
<path d="M32.2891 235.057C32.1791 235.06 32.0882 235.144 32.0776 235.254C31.8864 237.231 32.6493 239.398 33.6615 241.613C34.6734 243.828 35.9424 246.095 36.8069 248.246C36.8518 248.358 36.9785 248.412 37.0899 248.367C37.2014 248.322 37.2554 248.196 37.2105 248.084C36.3305 245.894 35.058 243.623 34.0565 241.432C33.0552 239.24 32.3328 237.131 32.5101 235.296C32.5158 235.238 32.4983 235.181 32.4618 235.136C32.425 235.092 32.3722 235.064 32.3146 235.058C32.3062 235.057 32.2976 235.057 32.2891 235.057Z" fill="#FF9955"/>
<path d="M45.6926 241.134C45.6823 241.134 45.6721 241.136 45.662 241.138C45.5443 241.161 45.4679 241.276 45.4913 241.394L46.5831 246.823C46.5943 246.88 46.6278 246.93 46.6759 246.962C46.7241 246.994 46.783 247.006 46.8396 246.994C46.8964 246.983 46.9459 246.949 46.9779 246.901C47.0097 246.853 47.0211 246.794 47.0097 246.737L45.9178 241.308C45.8964 241.202 45.8005 241.128 45.6926 241.134Z" fill="#FF9955"/>
<path d="M55.2728 242.795C55.2189 242.793 55.1658 242.81 55.1244 242.845C55.0799 242.882 55.0519 242.935 55.0465 242.993C55.0414 243.05 55.0591 243.107 55.0962 243.152C56.0728 244.326 57.1268 245.493 57.9079 246.644C58.689 247.795 59.1883 248.921 59.1076 250.015C59.1034 250.072 59.1223 250.129 59.1601 250.173C59.1979 250.217 59.2513 250.243 59.309 250.248C59.4286 250.256 59.5329 250.167 59.5418 250.047C59.6334 248.802 59.0745 247.588 58.2681 246.399C57.4617 245.211 56.3987 244.038 55.4301 242.873C55.391 242.826 55.3339 242.797 55.2728 242.795Z" fill="#FF9955"/>
<path d="M48.3647 217.692C49.0678 216.977 50.2939 216.898 50.9995 217.602C50.9995 217.602 51.0446 220.688 50.1865 221.305C49.3283 221.923 47.529 221.561 47.6043 220.929C47.6796 220.296 48.3647 217.692 48.3647 217.692Z" fill="white"/>
<path d="M36.7484 211.392C36.7484 211.392 38.5372 211.307 39.048 212.095C39.559 212.883 39.3643 215.501 38.1558 216.62C37.1161 217.582 35.4995 216.634 35.4995 216.634L36.7484 211.392Z" fill="white"/>
<path d="M12.805 217.114C12.805 217.114 14.9039 217.119 15.7556 218.269C16.6072 219.419 17.1656 221.535 16.5481 222.344C15.9306 223.153 14.3764 222.471 14.3764 222.471C14.1057 221.69 13.1706 219.513 12.8159 218.422C12.6061 217.777 12.7084 217.411 12.805 217.114Z" fill="white"/>
<path d="M0.158447 236.561C0.158447 236.561 1.23377 235.592 2.42604 236.124C3.61851 236.657 5.23319 237.85 5.2971 238.808C5.361 239.766 4.08352 239.926 4.08352 239.926C2.72672 238.672 1.8279 237.944 0.424709 236.859C0.32524 236.788 0.228246 236.711 0.158447 236.561Z" fill="white"/>
<path d="M308.173 353.597C302.396 364.483 293.833 374.705 284.72 384.797C283.039 385.824 280.893 385.887 279.78 385.435C274.961 383.269 270.786 379.555 266.323 376.535C263.187 374.805 259.023 374.514 254.698 374.448C250.193 374.533 245.788 374.619 241.18 374.703C238.824 375.695 239.385 378.454 241.369 379.452C243.781 380.631 251.413 380.551 256.419 380.901L254.101 381.475C249.63 383.013 241.79 384.545 237.962 387.053C235.289 389.445 237.531 394.54 240.659 393.966C239.817 396.668 242.143 398.859 245.06 398.998C251.139 399.078 258.203 396.735 263.363 397.519C259.735 398.8 255.424 399.13 250.777 398.995C247.446 399.276 248.758 404.029 251.83 404.566C256.637 405.812 263.13 404.829 268.41 405.067C270.423 405.907 272.415 406.639 274.371 407.196C280.576 410.462 287.114 414.314 296.847 405.89C311.992 392.848 323.744 377.543 335.571 362.288C326.919 358.587 317.791 354.072 308.173 353.597ZM257.702 389.509C255.026 390.877 250.508 391.323 246.711 392.13C250.392 391.234 254.374 389.952 257.702 389.509Z" fill="#FFB380"/>
<path d="M246.7 391.913C246.69 391.914 246.68 391.915 246.67 391.918C245.753 392.109 244.577 392.079 243.471 392.206C242.365 392.334 241.296 392.631 240.663 393.541C240.594 393.64 240.619 393.775 240.717 393.843C240.816 393.912 240.951 393.888 241.019 393.789C241.547 393.031 242.459 392.761 243.521 392.639C244.583 392.516 245.763 392.551 246.759 392.343C246.877 392.319 246.952 392.203 246.927 392.085C246.905 391.98 246.809 391.906 246.7 391.913Z" fill="#FF9955"/>
<path d="M264.73 388.754C262.306 388.663 260.027 388.912 257.802 389.274C257.745 389.283 257.695 389.314 257.661 389.361C257.627 389.408 257.613 389.466 257.623 389.524C257.632 389.58 257.663 389.632 257.71 389.665C257.757 389.699 257.816 389.713 257.872 389.703C260.817 389.224 263.832 388.949 267.147 389.399C267.205 389.407 267.263 389.391 267.309 389.357C267.355 389.321 267.385 389.27 267.392 389.212C267.409 389.093 267.325 388.984 267.206 388.968C266.363 388.853 265.538 388.785 264.73 388.754Z" fill="#FF9955"/>
<path d="M267.447 396.938C266.117 396.96 264.789 397.038 263.48 397.277C263.423 397.288 263.373 397.32 263.34 397.368C263.307 397.415 263.294 397.474 263.305 397.53C263.315 397.587 263.348 397.638 263.395 397.671C263.443 397.703 263.501 397.716 263.558 397.705C266.106 397.24 268.774 397.399 271.437 397.377C271.494 397.376 271.549 397.353 271.59 397.312C271.63 397.271 271.653 397.215 271.653 397.158C271.652 397.1 271.629 397.045 271.588 397.004C271.546 396.964 271.491 396.941 271.433 396.941C270.112 396.952 268.778 396.917 267.447 396.938Z" fill="#FF9955"/>
<path d="M266.419 377.428C266.319 377.423 266.228 377.487 266.199 377.583C265.859 378.724 265.551 379.682 264.181 380.765C263.916 380.967 263.708 381.063 263.45 381.102C263.192 381.141 262.873 381.118 262.416 381.045C260.648 380.716 258.864 380.596 256.675 380.674C256.617 380.676 256.563 380.701 256.523 380.743C256.484 380.785 256.463 380.841 256.465 380.899C256.467 380.956 256.492 381.011 256.534 381.051C256.576 381.09 256.632 381.111 256.69 381.109C258.857 381.031 260.604 381.15 262.342 381.474L262.347 381.474C262.82 381.55 263.182 381.583 263.516 381.532C263.85 381.481 264.144 381.341 264.448 381.108L264.451 381.106C265.897 379.964 266.274 378.855 266.617 377.708C266.65 377.593 266.585 377.472 266.47 377.437C266.454 377.432 266.437 377.429 266.419 377.428Z" fill="#FF9955"/>
<path d="M238.432 387.991C238.207 389.365 238.915 391.654 239.986 392.249C239.986 392.249 242.844 391.472 243.414 390.546C244.096 389.439 243.217 387.428 242.243 387.245C241.239 387.057 239.816 387.522 238.432 387.991Z" fill="white"/>
<path d="M242.586 393.634C242.227 394.324 242.832 396.544 243.813 397.03C243.813 397.03 246.929 396.721 247.547 395.954C248.164 395.188 247.691 393.323 246.567 393.123C245.375 392.91 243.52 393.303 242.586 393.634Z" fill="white"/>
<path d="M250.355 399.808C250.038 400.318 250.304 401.857 250.994 402.427C250.994 402.427 253.283 402.931 254.167 402.491C254.89 402.13 255.054 400.573 253.783 400.106C252.852 399.765 250.355 399.808 250.355 399.808Z" fill="white"/>
<path d="M241.029 377.376C241.59 377.691 243.458 377.969 244.361 377.6C245.428 377.165 245.287 375.354 244.436 375.088C243.562 374.815 241.181 374.704 241.181 374.704C240.687 375.441 240.63 376.607 241.029 377.376Z" fill="white"/>
<path d="M141.351 375.417C161.544 379.266 180.141 385.001 197.841 391.798C179.54 385.914 160.786 380.393 141.351 375.417Z" fill="#6871B3"/>
<path d="M130.931 337.568C139.977 333.467 139.008 322.375 136.227 310.019C136.028 318.981 133.542 329.118 130.931 337.568Z" fill="#6871B3"/>
<path d="M112.926 216.065C124.38 233.077 117.264 257.416 123.525 277.132C118.9 252.022 127.165 233.931 112.926 216.065Z" fill="#6871B3"/>
<path d="M112.563 233.771C113.341 242.205 116.142 250.213 121.235 257.74C117.536 250.861 114.449 243.141 112.563 233.771Z" fill="#6871B3"/>
<path d="M96.283 295.283C103.499 302.152 104.709 309.35 104.8 316.064C103.826 308.457 103.039 302.773 96.283 295.283Z" fill="#6871B3"/>
<path d="M102.928 304.956C110.379 307.8 115.287 314.686 116.479 327.479C115.164 318.037 111.908 309.767 102.928 304.956Z" fill="#6871B3"/>
<path d="M114.734 316.639C122.346 324.59 125.038 336.326 117.926 355.604C120.225 343.429 125.788 332.044 114.734 316.639Z" fill="#6871B3"/>
<path d="M117.502 319.832C125.385 324.793 131.512 331.158 125.923 346.897C129.36 334.483 127.153 326.704 117.502 319.832Z" fill="#6871B3"/>
<path d="M116.896 329.522C117.846 341.89 115.634 350.853 110.679 356.861C115.65 349.593 116.892 339.951 116.896 329.522Z" fill="#6871B3"/>
<path d="M83.5933 335.569C88.6834 340.827 93.5544 346.584 100.031 348.685C93.7591 345.715 88.909 340.23 83.5933 335.569Z" fill="#6871B3"/>
<path d="M105.096 305.617C114.639 305.577 122.314 305.099 130.266 298.058C122.069 304.142 114.396 304.573 105.096 305.617Z" fill="#6871B3"/>
<path d="M136.227 310.017C130.37 299.062 126.469 288.74 124.006 278.637C125.653 290.914 130.097 300.118 136.227 310.017Z" fill="#6871B3"/>
<path d="M70.32 303.007C71.9837 307.435 72.1899 311.932 75.7677 316.126C79.0094 319.927 78.4807 322.469 79.8629 323.805C81.3924 325.284 82.5041 327.847 83.4162 329.827C81.1423 330.904 76.8434 332.171 74.9067 325.348C74.7384 318.564 69.595 310.277 70.32 303.007Z" fill="#6871B3"/>
<path d="M90.1182 87.0264C82.739 87.0382 76.7632 93.0234 76.7632 100.403C76.7632 103.95 78.1725 107.353 80.6811 109.861C83.1894 112.37 86.5916 113.779 90.1394 113.779C92.1641 113.779 94.1621 113.319 95.9833 112.435L103.768 112.877L102.168 106.254C103.055 104.431 103.516 102.43 103.516 100.403C103.516 96.855 102.107 93.4528 99.5979 90.9443C97.0894 88.4357 93.6872 87.0264 90.1394 87.0264C90.1322 87.0264 90.1254 87.0264 90.1182 87.0264Z" fill="white"/>
<path d="M90.118 86.6797C82.5516 86.6918 76.4167 92.8364 76.4167 100.403C76.4167 107.977 82.5648 114.126 90.1396 114.126C92.1853 114.126 94.2032 113.666 96.0484 112.786L103.749 113.223C103.858 113.23 103.964 113.184 104.034 113.1C104.105 113.015 104.131 112.903 104.106 112.796L102.533 106.288C103.406 104.449 103.863 102.439 103.863 100.403C103.863 92.8278 97.7145 86.6797 90.1396 86.6797H90.118ZM90.1186 87.3731H90.14C97.34 87.3731 103.17 93.2024 103.17 100.403C103.17 102.377 102.721 104.326 101.857 106.102C101.822 106.174 101.813 106.257 101.831 106.335L103.322 112.505L96.0033 112.089C95.9445 112.085 95.8855 112.097 95.8325 112.123C94.0582 112.985 92.1119 113.432 90.14 113.432C82.9399 113.432 77.1107 107.603 77.1107 100.403C77.1107 93.2109 82.9269 87.385 90.1186 87.3731Z" fill="#483737" stroke="#29388E"/>
<path d="M89.1898 92.6844C88.6834 92.6866 88.2099 92.7286 87.7702 92.8105C87.3306 92.8924 86.9247 92.9975 86.5519 93.1259C86.179 93.2474 85.8363 93.389 85.5232 93.5504C85.2172 93.705 84.9417 93.8561 84.6951 94.0039L85.1521 97.9223L85.7559 97.9196C86.0355 97.7517 86.3481 97.6037 86.6946 97.4755C87.0472 97.3406 87.4031 97.2291 87.7628 97.1409C88.1224 97.0459 88.4656 96.9778 88.7914 96.9364C88.9919 96.9077 89.1725 96.8882 89.3395 96.8762C89.575 96.8954 89.7755 96.9401 89.9388 97.0114C90.1723 97.1038 90.3463 97.2197 90.4606 97.3592C90.581 97.4987 90.6515 97.6484 90.6721 97.8083C90.6928 97.9616 90.68 98.0983 90.6338 98.2184C90.5616 98.4187 90.4255 98.586 90.2263 98.7202C90.0337 98.8545 89.8068 98.9953 89.5478 99.1433C89.295 99.2843 89.0323 99.4554 88.7601 99.6568C88.4945 99.8513 88.2519 100.109 88.0333 100.43C87.8214 100.744 87.6531 101.142 87.5285 101.622C87.404 102.096 87.366 102.686 87.4163 103.393L88.0202 103.39L90.7959 103.378L91.4001 103.375C91.5444 102.888 91.7527 102.501 92.0249 102.213C92.3037 101.925 92.6056 101.684 92.9319 101.489C93.2643 101.287 93.6033 101.102 93.9494 100.934C94.2954 100.766 94.6085 100.558 94.8868 100.31C95.1661 100.062 95.3946 99.7478 95.5727 99.3672C95.7513 98.9797 95.8392 98.4692 95.8359 97.8359C95.8326 97.0025 95.6697 96.2664 95.3467 95.6278C95.0242 94.9825 94.5878 94.4412 94.0393 94.0035C93.4907 93.5658 92.849 93.2352 92.1153 93.0117C91.3873 92.788 90.6136 92.6782 89.7932 92.6817C89.6963 92.6821 89.6006 92.6866 89.5058 92.6887C89.401 92.685 89.2962 92.6839 89.1898 92.6844ZM89.1985 103.905C88.9052 103.906 88.6322 103.964 88.379 104.079C88.1266 104.193 87.9038 104.347 87.7108 104.542C87.5252 104.729 87.3763 104.953 87.2642 105.214C87.159 105.474 87.1062 105.748 87.1078 106.034C87.1091 106.328 87.1635 106.601 87.2712 106.854C87.3858 107.106 87.5368 107.326 87.724 107.512C87.9187 107.704 88.1422 107.853 88.3963 107.959C88.6495 108.071 88.9238 108.127 89.2171 108.125C89.3185 108.125 89.4183 108.117 89.5157 108.102C89.6151 108.116 89.7165 108.123 89.8209 108.123C90.1075 108.121 90.3772 108.064 90.6301 107.949C90.8829 107.841 91.1019 107.69 91.2879 107.496C91.4805 107.309 91.6331 107.088 91.7453 106.834C91.8575 106.58 91.9128 106.307 91.9115 106.013C91.9103 105.727 91.8525 105.454 91.7379 105.194C91.6236 104.935 91.4694 104.712 91.2751 104.526C91.0879 104.334 90.8668 104.181 90.6132 104.069C90.3595 103.957 90.0885 103.901 89.8023 103.902C89.698 103.903 89.5961 103.911 89.4967 103.925C89.3993 103.912 89.3004 103.904 89.1985 103.905Z" fill="#241F1C"/>
<path d="M90.7967 103.379L87.4163 103.394C87.3664 102.687 87.404 102.097 87.5285 101.623C87.6531 101.142 87.8218 100.745 88.0338 100.431C88.2519 100.11 88.494 99.8518 88.7601 99.6575C89.0327 99.4563 89.2954 99.2851 89.5478 99.144C89.8073 98.9962 90.0333 98.8552 90.2263 98.7209C90.4255 98.5868 90.5616 98.4195 90.6338 98.2191C90.68 98.099 90.6928 97.9623 90.6725 97.809C90.6515 97.6491 90.581 97.4994 90.4606 97.3598C90.3463 97.2203 90.1723 97.1045 89.9388 97.0121C89.7116 96.9132 89.4146 96.8644 89.048 96.866C88.8079 96.8672 88.5209 96.8916 88.188 96.9398C87.8618 96.9811 87.5186 97.0492 87.159 97.1441C86.7997 97.2324 86.4434 97.344 86.0908 97.4789C85.7443 97.6071 85.4317 97.7552 85.1521 97.923L84.6951 94.0046C84.9413 93.857 85.2172 93.7056 85.5237 93.5511C85.8359 93.3896 86.1786 93.2481 86.5515 93.1267C86.9243 92.9983 87.3306 92.8932 87.7702 92.8112C88.2099 92.7294 88.6834 92.6874 89.1898 92.6851C90.0102 92.6815 90.7835 92.7917 91.5114 93.0151C92.2456 93.2384 92.8869 93.5691 93.4359 94.0068C93.984 94.4445 94.4204 94.986 94.7429 95.6312C95.0658 96.2699 95.2288 97.0059 95.2325 97.8392C95.2349 98.4726 95.1471 98.983 94.9693 99.3706C94.7908 99.7513 94.5623 100.066 94.2835 100.314C94.0042 100.561 93.6916 100.769 93.346 100.938C92.9995 101.106 92.6609 101.291 92.3285 101.492C92.0023 101.687 91.7003 101.928 91.4211 102.216C91.1493 102.504 90.9406 102.891 90.7967 103.379ZM91.3077 106.017C91.3094 106.31 91.2537 106.584 91.1415 106.838C91.0293 107.091 90.8767 107.312 90.6845 107.5C90.4985 107.694 90.2791 107.845 90.0263 107.953C89.773 108.067 89.5033 108.125 89.2166 108.126C88.9238 108.127 88.6499 108.072 88.3963 107.96C88.1422 107.854 87.9183 107.705 87.724 107.512C87.5368 107.327 87.3858 107.107 87.2716 106.854C87.1639 106.601 87.1087 106.328 87.1078 106.035C87.1062 105.748 87.1586 105.475 87.2642 105.214C87.3763 104.954 87.5252 104.73 87.7112 104.542C87.9038 104.348 88.1266 104.194 88.3794 104.079C88.6318 103.965 88.9052 103.907 89.1989 103.906C89.4851 103.905 89.7553 103.96 90.0093 104.072C90.263 104.185 90.4841 104.337 90.6713 104.529C90.8656 104.715 91.0198 104.938 91.1345 105.197C91.2487 105.457 91.3065 105.73 91.3077 106.017Z" fill="#283593"/>
</svg>
