<svg width="129" height="130" viewBox="0 0 129 130" fill="none" xmlns="http://www.w3.org/2000/svg">
<path d="M0 15.5C0 7.21573 6.71573 0.5 15 0.5H114C122.284 0.5 129 7.21573 129 15.5V114.5C129 122.784 122.284 129.5 114 129.5H15C6.71573 129.5 0 122.784 0 114.5V15.5Z" fill="white"/>
<path d="M6 24.1786V18.3929C6.41421 18.3929 6.75 18.0571 6.75 17.6429V14C6.75 13.0834 6.93229 12.2112 7.2619 11.4164C7.41572 11.0454 7.24978 10.6217 6.89086 10.4516C7.58816 9.15555 8.65555 8.08816 9.9516 7.39086C10.1217 7.74978 10.5454 7.91572 10.9164 7.7619C11.7112 7.43229 12.5834 7.25 13.5 7.25H17.1429C17.5571 7.25 17.8929 6.91421 17.8929 6.5H23.6786C23.6786 6.91421 24.0144 7.25 24.4286 7.25H31.7143C32.1285 7.25 32.4643 6.91421 32.4643 6.5H38.25C38.25 6.91421 38.5858 7.25 39 7.25H46.2857C46.6999 7.25 47.0357 6.91421 47.0357 6.5H52.8214C52.8214 6.91421 53.1572 7.25 53.5714 7.25H60.8571C61.2714 7.25 61.6071 6.91421 61.6071 6.5H67.3929C67.3929 6.91421 67.7286 7.25 68.1429 7.25H75.4286C75.8428 7.25 76.1786 6.91421 76.1786 6.5H81.9643C81.9643 6.91421 82.3001 7.25 82.7143 7.25H90C90.4142 7.25 90.75 6.91421 90.75 6.5H96.5357C96.5357 6.91421 96.8715 7.25 97.2857 7.25H104.571C104.986 7.25 105.321 6.91421 105.321 6.5H111.107C111.107 6.91421 111.443 7.25 111.857 7.25H115.5C116.417 7.25 117.289 7.43229 118.084 7.7619C118.455 7.91572 118.878 7.74978 119.048 7.39086C120.344 8.08816 121.412 9.15555 122.109 10.4516C121.75 10.6217 121.584 11.0454 121.738 11.4164C122.068 12.2112 122.25 13.0834 122.25 14V17.6429C122.25 18.0571 122.586 18.3929 123 18.3929V24.1786C122.586 24.1786 122.25 24.5144 122.25 24.9286V32.2143C122.25 32.6285 122.586 32.9643 123 32.9643V38.75C122.586 38.75 122.25 39.0858 122.25 39.5V46.7857C122.25 47.1999 122.586 47.5357 123 47.5357V53.3214C122.586 53.3214 122.25 53.6572 122.25 54.0714V61.3571C122.25 61.7714 122.586 62.1071 123 62.1071V67.8929C122.586 67.8929 122.25 68.2286 122.25 68.6429V75.9286C122.25 76.3428 122.586 76.6786 123 76.6786V82.4643C122.586 82.4643 122.25 82.8001 122.25 83.2143V90.5C122.25 90.9142 122.586 91.25 123 91.25V97.0357C122.586 97.0357 122.25 97.3715 122.25 97.7857V105.071C122.25 105.486 122.586 105.821 123 105.821V111.607C122.586 111.607 122.25 111.943 122.25 112.357V116C122.25 116.917 122.068 117.789 121.738 118.584C121.584 118.955 121.75 119.378 122.109 119.548C121.412 120.844 120.344 121.912 119.048 122.609C118.878 122.25 118.455 122.084 118.084 122.238C117.289 122.568 116.417 122.75 115.5 122.75H111.857C111.443 122.75 111.107 123.086 111.107 123.5H105.321C105.321 123.086 104.986 122.75 104.571 122.75H97.2857C96.8715 122.75 96.5357 123.086 96.5357 123.5H90.75C90.75 123.086 90.4142 122.75 90 122.75H82.7143C82.3001 122.75 81.9643 123.086 81.9643 123.5H76.1786C76.1786 123.086 75.8428 122.75 75.4286 122.75H68.1429C67.7286 122.75 67.3929 123.086 67.3929 123.5H61.6071C61.6071 123.086 61.2714 122.75 60.8571 122.75H53.5714C53.1572 122.75 52.8214 123.086 52.8214 123.5H47.0357C47.0357 123.086 46.6999 122.75 46.2857 122.75H39C38.5858 122.75 38.25 123.086 38.25 123.5H32.4643C32.4643 123.086 32.1285 122.75 31.7143 122.75H24.4286C24.0144 122.75 23.6786 123.086 23.6786 123.5H17.8929C17.8929 123.086 17.5571 122.75 17.1429 122.75H13.5C12.5834 122.75 11.7112 122.568 10.9164 122.238C10.5454 122.084 10.1217 122.25 9.9516 122.609C8.65555 121.912 7.58816 120.844 6.89086 119.548C7.24978 119.378 7.41572 118.955 7.2619 118.584C6.93229 117.789 6.75 116.917 6.75 116V112.357C6.75 111.943 6.41421 111.607 6 111.607V105.821C6.41421 105.821 6.75 105.486 6.75 105.071V97.7857C6.75 97.3715 6.41421 97.0357 6 97.0357V91.25C6.41421 91.25 6.75 90.9142 6.75 90.5V83.2143C6.75 82.8001 6.41421 82.4643 6 82.4643V76.6786C6.41421 76.6786 6.75 76.3428 6.75 75.9286V68.6429C6.75 68.2286 6.41421 67.8929 6 67.8929V62.1071C6.41421 62.1071 6.75 61.7714 6.75 61.3571V54.0714C6.75 53.6572 6.41421 53.3214 6 53.3214V47.5357C6.41421 47.5357 6.75 47.1999 6.75 46.7857V39.5C6.75 39.0858 6.41421 38.75 6 38.75V32.9643C6.41421 32.9643 6.75 32.6285 6.75 32.2143V24.9286C6.75 24.5144 6.41421 24.1786 6 24.1786Z" fill="#F4F4FA" stroke="#29388E" stroke-width="1.5" stroke-linecap="round" stroke-linejoin="round" stroke-dasharray="7.5"/>
<path d="M70.9804 29H54.4265C48.941 29 44.4941 33.4469 44.4941 38.9323V61.0042C44.4941 66.4897 48.941 70.9365 54.4265 70.9365H76.4983C81.9839 70.9365 86.4307 66.4897 86.4307 61.0042V44.4503" stroke="#29388E" stroke-width="3" stroke-linecap="round"/>
<circle cx="55.5306" cy="40.0365" r="4.96617" stroke="#29388E" stroke-width="3"/>
<path d="M44.4941 62.1084L51.4757 53.8574C53.9684 50.9115 58.6376 51.3686 60.5116 54.742L61.3361 56.226C61.7216 56.9198 62.6916 56.9921 63.1755 56.3629L68.6231 49.2811C70.8894 46.3349 75.3612 46.4266 77.5048 49.4633L86.4307 62.1084" stroke="#29388E" stroke-width="3"/>
<path d="M79.8086 29V42.2431" stroke="#29388E" stroke-width="3" stroke-linecap="round"/>
<path d="M73.1875 35.6211H86.4306" stroke="#29388E" stroke-width="3" stroke-linecap="round"/>
<path d="M36.2835 98.8848L38.9835 89.4348H41.5485L44.235 98.8848H42.7365L42.1155 96.6573H38.4165L37.7955 98.8848H36.2835ZM38.781 95.3073H41.751L40.374 90.3393H40.158L38.781 95.3073ZM48.3098 99.0738C47.7608 99.0738 47.2523 98.9388 46.7843 98.6688C46.3163 98.3988 45.9383 98.0118 45.6503 97.5078C45.3713 96.9948 45.2318 96.3783 45.2318 95.6583V95.4558C45.2318 94.7448 45.3713 94.1328 45.6503 93.6198C45.9293 93.1068 46.3028 92.7153 46.7708 92.4453C47.2388 92.1753 47.7518 92.0403 48.3098 92.0403C48.7418 92.0403 49.1018 92.0943 49.3898 92.2023C49.6868 92.3103 49.9298 92.4498 50.1188 92.6208C50.3078 92.7828 50.4518 92.9538 50.5508 93.1338H50.7668V89.4348H52.1573V98.8848H50.7938V97.9398H50.5778C50.4068 98.2278 50.1458 98.4888 49.7948 98.7228C49.4528 98.9568 48.9578 99.0738 48.3098 99.0738ZM48.7013 97.8588C49.3043 97.8588 49.7993 97.6653 50.1863 97.2783C50.5823 96.8913 50.7803 96.3378 50.7803 95.6178V95.4963C50.7803 94.7853 50.5868 94.2363 50.1998 93.8493C49.8128 93.4623 49.3133 93.2688 48.7013 93.2688C48.1073 93.2688 47.6123 93.4623 47.2163 93.8493C46.8293 94.2363 46.6358 94.7853 46.6358 95.4963V95.6178C46.6358 96.3378 46.8293 96.8913 47.2163 97.2783C47.6123 97.6653 48.1073 97.8588 48.7013 97.8588ZM56.9582 99.0738C56.4092 99.0738 55.9007 98.9388 55.4327 98.6688C54.9647 98.3988 54.5867 98.0118 54.2987 97.5078C54.0197 96.9948 53.8802 96.3783 53.8802 95.6583V95.4558C53.8802 94.7448 54.0197 94.1328 54.2987 93.6198C54.5777 93.1068 54.9512 92.7153 55.4192 92.4453C55.8872 92.1753 56.4002 92.0403 56.9582 92.0403C57.3902 92.0403 57.7502 92.0943 58.0382 92.2023C58.3352 92.3103 58.5782 92.4498 58.7672 92.6208C58.9562 92.7828 59.1002 92.9538 59.1992 93.1338H59.4152V89.4348H60.8057V98.8848H59.4422V97.9398H59.2262C59.0552 98.2278 58.7942 98.4888 58.4432 98.7228C58.1012 98.9568 57.6062 99.0738 56.9582 99.0738ZM57.3497 97.8588C57.9527 97.8588 58.4477 97.6653 58.8347 97.2783C59.2307 96.8913 59.4287 96.3378 59.4287 95.6178V95.4963C59.4287 94.7853 59.2352 94.2363 58.8482 93.8493C58.4612 93.4623 57.9617 93.2688 57.3497 93.2688C56.7557 93.2688 56.2607 93.4623 55.8647 93.8493C55.4777 94.2363 55.2842 94.7853 55.2842 95.4963V95.6178C55.2842 96.3378 55.4777 96.8913 55.8647 97.2783C56.2607 97.6653 56.7557 97.8588 57.3497 97.8588ZM66.2936 98.8848V89.4348H67.6841V98.8848H66.2936ZM72.8662 99.0738C72.2002 99.0738 71.6062 98.9388 71.0842 98.6688C70.5712 98.3898 70.1662 97.9938 69.8692 97.4808C69.5722 96.9678 69.4237 96.3603 69.4237 95.6583V95.4558C69.4237 94.7538 69.5722 94.1508 69.8692 93.6468C70.1662 93.1338 70.5712 92.7378 71.0842 92.4588C71.6062 92.1798 72.2002 92.0403 72.8662 92.0403C73.5322 92.0403 74.1262 92.1798 74.6482 92.4588C75.1702 92.7378 75.5797 93.1338 75.8767 93.6468C76.1737 94.1508 76.3222 94.7538 76.3222 95.4558V95.6583C76.3222 96.3603 76.1737 96.9678 75.8767 97.4808C75.5797 97.9938 75.1702 98.3898 74.6482 98.6688C74.1262 98.9388 73.5322 99.0738 72.8662 99.0738ZM72.8662 97.8318C73.4782 97.8318 73.9732 97.6383 74.3512 97.2513C74.7382 96.8553 74.9317 96.3108 74.9317 95.6178V95.4963C74.9317 94.8033 74.7427 94.2633 74.3647 93.8763C73.9867 93.4803 73.4872 93.2823 72.8662 93.2823C72.2632 93.2823 71.7682 93.4803 71.3812 93.8763C71.0032 94.2633 70.8142 94.8033 70.8142 95.4963V95.6178C70.8142 96.3108 71.0032 96.8553 71.3812 97.2513C71.7682 97.6383 72.2632 97.8318 72.8662 97.8318ZM77.7293 95.5908V95.3883C77.7293 94.6863 77.8688 94.0878 78.1478 93.5928C78.4358 93.0978 78.8138 92.7153 79.2818 92.4453C79.7498 92.1753 80.2628 92.0403 80.8208 92.0403C81.4688 92.0403 81.9638 92.1618 82.3058 92.4048C82.6568 92.6478 82.9133 92.9088 83.0753 93.1878H83.2913V92.2293H84.6413V100.248C84.6413 100.653 84.5198 100.977 84.2768 101.22C84.0428 101.463 83.7188 101.585 83.3048 101.585H78.8228V100.37H82.8728C83.1338 100.37 83.2643 100.235 83.2643 99.9648V97.8453H83.0483C82.9493 98.0073 82.8098 98.1738 82.6298 98.3448C82.4498 98.5158 82.2113 98.6553 81.9143 98.7633C81.6263 98.8713 81.2618 98.9253 80.8208 98.9253C80.2628 98.9253 79.7453 98.7948 79.2683 98.5338C78.8003 98.2638 78.4268 97.8813 78.1478 97.3863C77.8688 96.8823 77.7293 96.2838 77.7293 95.5908ZM81.1988 97.7103C81.8018 97.7103 82.2968 97.5213 82.6838 97.1433C83.0798 96.7563 83.2778 96.2253 83.2778 95.5503V95.4288C83.2778 94.7358 83.0843 94.2048 82.6973 93.8358C82.3103 93.4578 81.8108 93.2688 81.1988 93.2688C80.6048 93.2688 80.1098 93.4578 79.7138 93.8358C79.3268 94.2048 79.1333 94.7358 79.1333 95.4288V95.5503C79.1333 96.2253 79.3268 96.7563 79.7138 97.1433C80.1098 97.5213 80.6048 97.7103 81.1988 97.7103ZM89.8071 99.0738C89.1411 99.0738 88.5471 98.9388 88.0251 98.6688C87.5121 98.3898 87.1071 97.9938 86.8101 97.4808C86.5131 96.9678 86.3646 96.3603 86.3646 95.6583V95.4558C86.3646 94.7538 86.5131 94.1508 86.8101 93.6468C87.1071 93.1338 87.5121 92.7378 88.0251 92.4588C88.5471 92.1798 89.1411 92.0403 89.8071 92.0403C90.4731 92.0403 91.0671 92.1798 91.5891 92.4588C92.1111 92.7378 92.5206 93.1338 92.8176 93.6468C93.1146 94.1508 93.2631 94.7538 93.2631 95.4558V95.6583C93.2631 96.3603 93.1146 96.9678 92.8176 97.4808C92.5206 97.9938 92.1111 98.3898 91.5891 98.6688C91.0671 98.9388 90.4731 99.0738 89.8071 99.0738ZM89.8071 97.8318C90.4191 97.8318 90.9141 97.6383 91.2921 97.2513C91.6791 96.8553 91.8726 96.3108 91.8726 95.6178V95.4963C91.8726 94.8033 91.6836 94.2633 91.3056 93.8763C90.9276 93.4803 90.4281 93.2823 89.8071 93.2823C89.2041 93.2823 88.7091 93.4803 88.3221 93.8763C87.9441 94.2633 87.7551 94.8033 87.7551 95.4963V95.6178C87.7551 96.3108 87.9441 96.8553 88.3221 97.2513C88.7091 97.6383 89.2041 97.8318 89.8071 97.8318Z" fill="#283593"/>
</svg>
