<svg width="32" height="32" viewBox="0 0 32 32" fill="none" xmlns="http://www.w3.org/2000/svg">
<path d="M29.0532 17.8043C29.058 19.6414 28.6288 21.4536 27.8005 23.0933C25.7976 27.1009 21.7027 29.6333 17.2225 29.635C15.3855 29.6398 13.5733 29.2106 11.9335 28.3824L4 31.0269L6.6445 23.0933C5.81626 21.4536 5.38705 19.6414 5.39184 17.8043C5.39358 13.3241 7.92594 9.22925 11.9335 7.22633C13.5733 6.39809 15.3855 5.96888 17.2225 5.97367H17.9184C23.9254 6.30507 28.7218 11.1015 29.0532 17.1084V17.8043Z" stroke="#9A9BA5" stroke-width="1.5" stroke-linecap="round" stroke-linejoin="round"/>
<circle cx="11.5264" cy="17.5" r="1.5" fill="#9A9BA5"/>
<circle cx="17.5264" cy="17.5" r="1.5" fill="#9A9BA5"/>
<circle cx="23.5264" cy="17.5" r="1.5" fill="#9A9BA5"/>
</svg>
