<svg width="21" height="24" viewBox="0 0 21 24" fill="none" xmlns="http://www.w3.org/2000/svg">
<path d="M20.087 22.08H18.7174V16.9812C18.7174 16.9802 18.7174 16.9791 18.7174 16.9781V16.036C18.7174 13.0166 16.3809 10.56 13.5091 10.56H11.413V7.51488C12.4757 7.11859 13.2391 6.05155 13.2391 4.8C13.2391 3.57274 11.8489 1.32413 11.2513 0.414335C11.0807 0.154943 10.7999 0 10.5 0C10.2001 0 9.91921 0.154943 9.74875 0.414335C9.15107 1.32413 7.76087 3.57274 7.76087 4.8C7.76087 6.05146 8.52427 7.11859 9.58696 7.51488V10.56H7.49088C4.619 10.56 2.28261 13.0166 2.28261 16.0361V16.9775C2.28261 16.979 2.28261 16.9807 2.28261 16.9822V22.08H0.913043C0.40877 22.08 0 22.5099 0 23.04C0 23.5701 0.40877 24 0.913043 24H3.19565H17.8043H20.087C20.5911 24 21 23.5701 21 23.04C21 22.5099 20.5911 22.08 20.087 22.08ZM10.5002 2.73926C11.0257 3.66998 11.4053 4.50624 11.413 4.80077C11.4127 5.32973 11.0033 5.76 10.5 5.76C9.99655 5.76 9.58696 5.32934 9.58696 4.80115C9.59444 4.50768 9.97418 3.67104 10.5002 2.73926ZM7.49088 12.48H13.5091C15.1576 12.48 16.5337 13.7268 16.831 15.3705L15.7942 14.7981C15.5285 14.6513 15.211 14.6513 14.9453 14.7981L12.9351 15.9078L10.9249 14.7981C10.6591 14.6513 10.3419 14.6513 10.0761 14.7981L8.06573 15.9079L6.05512 14.798C5.78943 14.6514 5.47205 14.6514 5.20636 14.798L4.16896 15.3706C4.46634 13.7268 5.84229 12.48 7.49088 12.48ZM4.1087 22.08V17.5723L5.63074 16.7322L7.64135 17.8421C7.90705 17.9887 8.22442 17.9888 8.49012 17.842L10.5005 16.7323L12.5106 17.842C12.7763 17.9888 13.0938 17.9888 13.3595 17.842L15.3697 16.7323L16.8913 17.5722V22.08H4.1087Z" fill="white"/>
</svg>
