<svg width="24" height="23" viewBox="0 0 24 23" fill="none" xmlns="http://www.w3.org/2000/svg">
<path d="M9.41016 11.3868L19.41 1.38721L21.0229 3.00005L11.023 12.9996L9.41016 11.3868Z" fill="#009F3D"/>
<path d="M19.575 19.6288C19.4645 17.7891 17.9962 16.3189 16.1543 16.2081C16.205 14.4448 17.6211 13.026 19.3868 12.976C19.4972 14.8156 20.9656 16.2855 22.8075 16.396C22.7578 18.1594 21.3407 19.5779 19.575 19.6288Z" fill="#009F3D"/>
<path d="M11.3474 16.5479L21.8002 6.09508C22.6196 5.2757 22.6198 3.94901 21.8002 3.12948L19.2838 0.613106C18.4662 -0.204369 17.1359 -0.204369 16.3183 0.613106L4.2524 12.6792C4.07488 12.8567 4.07488 13.1442 4.2524 13.3217C4.96469 14.034 4.96469 15.1932 4.2524 15.9054L0.413 19.7445C-0.137667 20.2954 -0.137667 21.1914 0.413 21.7421L0.671213 22.0003C1.22193 22.551 2.11816 22.551 2.66888 22.0003L6.50796 18.1612C6.853 17.8162 7.31193 17.6261 7.79989 17.6261C8.2879 17.6261 8.74653 17.8162 9.09156 18.1612C9.26907 18.3385 9.55733 18.338 9.73436 18.1612L11.3474 16.5479ZM7.79989 10.417L11.9966 14.6136L11.026 15.584L6.82937 11.3875L7.79989 10.417ZM16.961 1.25585C17.4242 0.792686 18.1779 0.792412 18.6413 1.25585L21.1577 3.77222C21.6208 4.23541 21.6208 4.98914 21.1577 5.45249L12.6391 13.9709L8.44245 9.77415L16.961 1.25585ZM6.18682 12.0301L10.3835 16.2267L9.41297 17.1973L5.21629 13.0006L6.18682 12.0301ZM5.8654 17.5185L2.02632 21.3578C1.8299 21.5542 1.51019 21.554 1.31378 21.3578L1.05581 21.0996C0.859388 20.9032 0.859388 20.5836 1.05581 20.3872L4.8949 16.5479C5.39091 16.0519 5.65597 15.411 5.69056 14.7602L7.65175 16.7213C6.97678 16.7571 6.34706 17.0368 5.8654 17.5185Z" fill="#283593"/>
<path d="M19.3783 12.5214C17.3719 12.5768 15.757 14.1917 15.7016 16.1986C15.6436 18.3714 17.4126 20.1405 19.5859 20.0825C21.5923 20.0271 23.2073 18.4122 23.2626 16.4057C23.3204 14.2417 21.5591 12.4634 19.3783 12.5214ZM22.3541 16.3806C22.3122 17.905 21.0852 19.132 19.561 19.1742C17.92 19.2175 16.5658 17.8835 16.6101 16.2233C16.652 14.699 17.8791 13.4719 19.4031 13.4297C21.0539 13.3859 22.3981 14.729 22.3541 16.3806Z" fill="#283593"/>
</svg>
