<svg width="32" height="32" viewBox="0 0 32 32" fill="none" xmlns="http://www.w3.org/2000/svg">
<rect x="5.83398" y="7.1665" width="20.3333" height="20.3333" rx="3.5" stroke="white"/>
<path d="M15.0268 20.4725C14.8538 20.4725 14.6854 20.4006 14.5624 20.2664L12.186 17.706C11.9356 17.4327 11.9401 17.0011 12.1951 16.7326C12.4546 16.4689 12.8643 16.4737 13.1193 16.7422L14.9949 18.7608L19.1196 13.5777C19.3518 13.29 19.7616 13.2469 20.0393 13.4914C20.317 13.7359 20.3534 14.1675 20.1212 14.4599L15.5276 20.228C15.4092 20.3766 15.2362 20.4677 15.0541 20.4725C15.0405 20.4725 15.0359 20.4725 15.0268 20.4725Z" fill="white"/>
<mask id="path-3-inside-1_284_4461" fill="white">
<path d="M10.667 4.66667C10.667 4.29848 10.9655 4 11.3337 4C11.7018 4 12.0003 4.29848 12.0003 4.66667V8.66667C12.0003 9.03486 11.7018 9.33333 11.3337 9.33333C10.9655 9.33333 10.667 9.03486 10.667 8.66667V4.66667Z"/>
</mask>
<path d="M10.667 4.66667C10.667 4.29848 10.9655 4 11.3337 4C11.7018 4 12.0003 4.29848 12.0003 4.66667V8.66667C12.0003 9.03486 11.7018 9.33333 11.3337 9.33333C10.9655 9.33333 10.667 9.03486 10.667 8.66667V4.66667Z" fill="#283593"/>
<path d="M10.0003 4.66667V8.66667H14.0003V4.66667H10.0003ZM12.667 8.66667V4.66667H8.66699V8.66667H12.667ZM11.3337 7.33333C12.07 7.33333 12.667 7.93029 12.667 8.66667H8.66699C8.66699 10.1394 9.8609 11.3333 11.3337 11.3333V7.33333ZM10.0003 8.66667C10.0003 7.93029 10.5973 7.33333 11.3337 7.33333V11.3333C12.8064 11.3333 14.0003 10.1394 14.0003 8.66667H10.0003ZM11.3337 6C10.5973 6 10.0003 5.40305 10.0003 4.66667H14.0003C14.0003 3.19391 12.8064 2 11.3337 2V6ZM11.3337 2C9.8609 2 8.66699 3.19391 8.66699 4.66667H12.667C12.667 5.40304 12.07 6 11.3337 6V2Z" fill="white" mask="url(#path-3-inside-1_284_4461)"/>
<mask id="path-5-inside-2_284_4461" fill="white">
<path d="M20.001 4.66667C20.001 4.29848 20.2995 4 20.6676 4C21.0358 4 21.3343 4.29848 21.3343 4.66667V8.66667C21.3343 9.03486 21.0358 9.33333 20.6676 9.33333C20.2995 9.33333 20.001 9.03486 20.001 8.66667V4.66667Z"/>
</mask>
<path d="M20.001 4.66667C20.001 4.29848 20.2995 4 20.6676 4C21.0358 4 21.3343 4.29848 21.3343 4.66667V8.66667C21.3343 9.03486 21.0358 9.33333 20.6676 9.33333C20.2995 9.33333 20.001 9.03486 20.001 8.66667V4.66667Z" fill="#283593"/>
<path d="M19.3343 4.66667V8.66667H23.3343V4.66667H19.3343ZM22.001 8.66667V4.66667H18.001V8.66667H22.001ZM20.6676 7.33333C21.404 7.33333 22.001 7.93029 22.001 8.66667H18.001C18.001 10.1394 19.1949 11.3333 20.6676 11.3333V7.33333ZM19.3343 8.66667C19.3343 7.93029 19.9313 7.33333 20.6676 7.33333V11.3333C22.1404 11.3333 23.3343 10.1394 23.3343 8.66667H19.3343ZM20.6676 6C19.9313 6 19.3343 5.40305 19.3343 4.66667H23.3343C23.3343 3.19391 22.1404 2 20.6676 2V6ZM20.6676 2C19.1949 2 18.001 3.19391 18.001 4.66667H22.001C22.001 5.40304 21.404 6 20.6676 6V2Z" fill="white" mask="url(#path-5-inside-2_284_4461)"/>
</svg>
