<svg width="15" height="15" viewBox="0 0 15 15" fill="none" xmlns="http://www.w3.org/2000/svg">
<path d="M14.4928 8.82849H11.6606L11.6608 6.12061C12.2415 6.19906 14.4928 6.50541 14.4928 8.25334V8.82849Z" fill="#D32F2F"/>
<path d="M5.99419 8.82857L5.89709 8.3918C5.62282 7.15784 4.52838 6.27974 3.26429 6.27974H2.57324C1.73164 6.27974 0.97465 5.76737 0.662211 4.98584L0.613281 4.86377V8.82857H5.99419Z" fill="#D32F2F"/>
<path d="M13.4124 6.30537C12.6305 5.93094 11.7983 5.86395 11.5808 5.82283C9.45325 5.41749 7.5748 4.43542 6.27705 3.05309V1.63191C6.27705 0.833816 5.56354 0.225336 4.77631 0.349665L1.42781 0.87831C0.792877 0.97853 0.332031 1.5178 0.332031 2.16064V9.68914C0.332031 10.3142 0.840037 10.8228 1.4648 10.8241V10.9271C1.4648 11.4827 1.91316 11.9352 2.46701 11.9422C2.19638 12.2431 2.03129 12.6409 2.03129 13.0766C2.03129 14.0128 2.79309 14.7747 3.72932 14.7747C4.66566 14.7747 5.42736 14.0128 5.42736 13.0766C5.42736 12.6409 5.26241 12.2431 4.99164 11.9422C5.54533 11.935 5.99367 11.4825 5.99367 10.9271V10.8241H9.11154V10.9271C9.11154 11.4825 9.55989 11.935 10.1136 11.9422C9.8428 12.2431 9.67772 12.6409 9.67772 13.0766C9.67772 14.0128 10.4396 14.7747 11.3759 14.7747C12.3121 14.7747 13.0739 14.0128 13.0739 13.0766C13.0739 12.6409 12.9089 12.2431 12.6381 11.9422C13.1921 11.9352 13.6404 11.4825 13.6404 10.9271V10.8241C14.2645 10.8241 14.7732 10.3165 14.7732 9.6925V8.25315C14.7732 7.40525 14.3027 6.7317 13.4124 6.30537ZM0.896149 2.16064C0.896149 1.79722 1.15677 1.49222 1.51581 1.43556L4.8643 0.906814C5.30983 0.836461 5.71294 1.18109 5.71294 1.63191V2.88238H0.896149V2.16064ZM3.72932 14.2105C3.10411 14.2105 2.59539 13.7018 2.59539 13.0766C2.59539 12.4512 3.10411 11.9426 3.72932 11.9426C4.35469 11.9426 4.8634 12.4512 4.8634 13.0766C4.8634 13.7018 4.35469 14.2105 3.72932 14.2105ZM5.42959 10.9271C5.42959 11.1759 5.22713 11.3784 4.9783 11.3784H2.4802C2.23135 11.3784 2.02891 11.1759 2.02891 10.9271V10.8243H5.42959V10.9271ZM11.3759 14.2105C10.7505 14.2105 10.2418 13.7018 10.2418 13.0766C10.2418 12.4512 10.7505 11.9426 11.3759 11.9426C12.0011 11.9426 12.5098 12.4512 12.5098 13.0766C12.5098 13.7018 12.0011 14.2105 11.3759 14.2105ZM13.0763 10.9271C13.0763 11.1759 12.8739 11.3784 12.625 11.3784H10.1269C9.87809 11.3784 9.67566 11.1759 9.67566 10.9271V10.8243H13.0763V10.9271ZM14.2091 9.6925C14.2091 10.0054 13.9545 10.26 13.6414 10.26H1.46717C1.15233 10.26 0.896291 10.004 0.896149 9.68914V9.11049H14.2091V9.6925ZM14.2091 8.54638H0.896149V3.44649H5.87177C6.04935 3.63527 6.23623 3.81669 6.43218 3.99064L6.03614 4.61098C5.95239 4.7423 5.9909 4.9167 6.12222 5.0006C6.254 5.08475 6.42823 5.04538 6.51166 4.91463L6.86907 4.35465C7.08752 4.52522 7.31565 4.68696 7.55292 4.84018L7.21769 5.36519C7.13394 5.49651 7.17245 5.67089 7.30377 5.75478C7.35077 5.78476 7.4032 5.79901 7.45522 5.79901C7.54837 5.79901 7.63946 5.75303 7.6932 5.66867L8.03534 5.13279C8.14917 5.19744 8.26483 5.26033 8.38219 5.32112C8.51408 5.38944 8.64793 5.45481 8.7835 5.5178L8.39922 6.11968C8.31548 6.25103 8.35398 6.42539 8.48531 6.50929C8.61708 6.59332 8.79132 6.55393 8.87473 6.42321L9.30752 5.74505C9.57855 5.85424 9.85575 5.95298 10.1387 6.0417L9.7221 6.69439C9.60145 6.8836 9.74 7.12821 9.95963 7.12821C10.0527 7.12821 10.1438 7.08219 10.1976 6.99788L10.7044 6.20373C10.9538 6.26835 11.2068 6.32562 11.4638 6.37471C11.4981 6.38354 11.5407 6.38926 11.619 6.39986C13.3376 6.63205 14.2091 7.25553 14.2091 8.25315V8.54638Z" fill="#283593"/>
<path d="M4.0117 13.0767C4.0117 13.2326 3.88534 13.3589 3.72947 13.3589C3.57359 13.3589 3.44727 13.2326 3.44727 13.0767C3.44727 12.9207 3.57359 12.7944 3.72947 12.7944C3.88534 12.7944 4.0117 12.9207 4.0117 13.0767Z" fill="#020288"/>
<path d="M11.6577 13.0767C11.6577 13.2326 11.5313 13.3589 11.3755 13.3589C11.2197 13.3589 11.0933 13.2326 11.0933 13.0767C11.0933 12.9207 11.2197 12.7944 11.3755 12.7944C11.5313 12.7944 11.6577 12.9207 11.6577 13.0767Z" fill="#020288"/>
</svg>
