<svg width="18" height="15" viewBox="0 0 18 15" fill="none" xmlns="http://www.w3.org/2000/svg">
<path d="M8.65651 0.333496C3.87229 0.333496 0 4.20528 0 8.99003V11.876C0 12.437 0.456309 12.8933 1.01723 12.8933H1.60158C2.06371 13.8137 3.22504 14.5909 4.75197 14.5909C5.64295 14.5909 6.48409 14.3184 7.12025 13.8235C7.74843 13.335 8.10827 12.6865 8.14294 11.9872C8.40465 11.6621 8.90801 11.6616 9.17008 11.9872C9.20476 12.6865 9.56458 13.335 10.1928 13.8235C10.8289 14.3184 11.6701 14.5909 12.561 14.5909C14.0836 14.5909 15.2475 13.8172 15.7114 12.8933H16.2958C16.8567 12.8933 17.313 12.437 17.313 11.876V8.99003C17.313 4.20577 13.4414 0.333496 8.65651 0.333496ZM8.65651 1.00981C13.0568 1.00981 16.6367 4.58972 16.6367 8.99003V10.9173C16.5287 10.8788 16.4138 10.8588 16.2958 10.8588H15.955V8.99003C15.955 4.95638 12.6907 1.69171 8.65651 1.69171C4.62289 1.69171 1.35802 4.95585 1.35802 8.99003V10.8588H1.01723C0.899231 10.8588 0.784261 10.8788 0.67629 10.9173V8.99003C0.67629 4.58972 4.25621 1.00981 8.65651 1.00981ZM1.01723 12.217C0.829173 12.217 0.67629 12.0639 0.67629 11.876C0.67629 11.6878 0.829 11.5351 1.01723 11.5351H1.38409C1.34942 11.7609 1.34942 11.9912 1.38409 12.217H1.01723ZM4.75197 13.9146C3.2534 13.9146 2.03432 13 2.03432 11.876C2.03432 10.7519 3.2534 9.8375 4.75197 9.8375C6.25041 9.8375 7.46949 10.7519 7.46949 11.876C7.46949 13 6.25041 13.9146 4.75197 13.9146ZM8.04574 11.2144C7.8955 10.7286 7.57972 10.2859 7.12025 9.92853C5.66482 8.79647 3.27364 8.92871 2.03432 10.2455V8.99003C2.03432 5.33854 5.00509 2.36802 8.65651 2.36802C12.3079 2.36802 15.2787 5.33854 15.2787 8.99003V10.2455C14.0369 8.92627 11.6461 8.79824 10.1928 9.92853C9.73331 10.2859 9.41751 10.7286 9.26728 11.2144C8.88459 11.0185 8.42878 11.0182 8.04574 11.2144ZM12.561 13.9146C11.0626 13.9146 9.84354 13 9.84354 11.876C9.84354 10.7519 11.0626 9.8375 12.561 9.8375C14.0596 9.8375 15.2787 10.7519 15.2787 11.876C15.2787 13 14.0596 13.9146 12.561 13.9146ZM16.2958 12.217H15.9289C15.9636 11.9912 15.9636 11.7609 15.9289 11.5351H16.2958C16.484 11.5351 16.6367 11.6878 16.6367 11.876C16.6367 12.0639 16.4839 12.217 16.2958 12.217Z" fill="#283593"/>
</svg>
