<svg width="345" height="72" viewBox="0 0 345 72" fill="none" xmlns="http://www.w3.org/2000/svg">
<rect width="72" height="72" rx="16" fill="#FBEBEB"/>
<path d="M51 36L28.5 48.9904L28.5 23.0096L51 36Z" fill="#E16E6E"/>
<path d="M98.66 27.28C96.9533 27.28 95.6 26.8 94.6 25.84C93.6 24.8667 93.1 23.4667 93.1 21.64V18.36C93.1 16.5333 93.6 15.14 94.6 14.18C95.6 13.2067 96.9533 12.72 98.66 12.72C100.34 12.72 101.633 13.1867 102.54 14.12C103.46 15.0533 103.92 16.3267 103.92 17.94V18.06H101.78V17.88C101.78 16.9333 101.52 16.16 101 15.56C100.493 14.96 99.7133 14.66 98.66 14.66C97.5933 14.66 96.76 14.9867 96.16 15.64C95.56 16.28 95.26 17.1733 95.26 18.32V21.68C95.26 22.8133 95.56 23.7067 96.16 24.36C96.76 25.0133 97.5933 25.34 98.66 25.34C99.7133 25.34 100.493 25.04 101 24.44C101.52 23.8267 101.78 23.0533 101.78 22.12V21.78H103.92V22.06C103.92 23.6733 103.46 24.9467 102.54 25.88C101.633 26.8133 100.34 27.28 98.66 27.28ZM106.372 27V17.14H108.392V18.3H108.712C108.872 17.8867 109.125 17.5867 109.472 17.4C109.832 17.2 110.272 17.1 110.792 17.1H111.972V18.96H110.712C110.045 18.96 109.498 19.1467 109.072 19.52C108.645 19.88 108.432 20.44 108.432 21.2V27H106.372ZM118.274 27.28C117.274 27.28 116.401 27.0733 115.654 26.66C114.908 26.2333 114.321 25.64 113.894 24.88C113.481 24.1067 113.274 23.2133 113.274 22.2V21.96C113.274 20.9333 113.481 20.04 113.894 19.28C114.308 18.5067 114.881 17.9133 115.614 17.5C116.361 17.0733 117.221 16.86 118.194 16.86C119.141 16.86 119.968 17.0733 120.674 17.5C121.394 17.9133 121.954 18.4933 122.354 19.24C122.754 19.9867 122.954 20.86 122.954 21.86V22.64H115.374C115.401 23.5067 115.688 24.2 116.234 24.72C116.794 25.2267 117.488 25.48 118.314 25.48C119.088 25.48 119.668 25.3067 120.054 24.96C120.454 24.6133 120.761 24.2133 120.974 23.76L122.674 24.64C122.488 25.0133 122.214 25.4067 121.854 25.82C121.508 26.2333 121.048 26.58 120.474 26.86C119.901 27.14 119.168 27.28 118.274 27.28ZM115.394 21.06H120.854C120.801 20.3133 120.534 19.7333 120.054 19.32C119.574 18.8933 118.948 18.68 118.174 18.68C117.401 18.68 116.768 18.8933 116.274 19.32C115.794 19.7333 115.501 20.3133 115.394 21.06ZM128.494 27.28C127.787 27.28 127.154 27.16 126.594 26.92C126.047 26.68 125.607 26.3267 125.274 25.86C124.954 25.3933 124.794 24.8267 124.794 24.16C124.794 23.48 124.954 22.92 125.274 22.48C125.607 22.0267 126.054 21.6867 126.614 21.46C127.187 21.2333 127.834 21.12 128.554 21.12H131.554V20.48C131.554 19.9067 131.381 19.4467 131.034 19.1C130.687 18.7533 130.154 18.58 129.434 18.58C128.727 18.58 128.187 18.7467 127.814 19.08C127.441 19.4133 127.194 19.8467 127.074 20.38L125.154 19.76C125.314 19.2267 125.567 18.7467 125.914 18.32C126.274 17.88 126.747 17.5267 127.334 17.26C127.921 16.9933 128.627 16.86 129.454 16.86C130.734 16.86 131.741 17.1867 132.474 17.84C133.207 18.4933 133.574 19.42 133.574 20.62V24.68C133.574 25.08 133.761 25.28 134.134 25.28H134.974V27H133.434C132.967 27 132.587 26.88 132.294 26.64C132.001 26.4 131.854 26.0733 131.854 25.66V25.6H131.554C131.447 25.8 131.287 26.0333 131.074 26.3C130.861 26.5667 130.547 26.8 130.134 27C129.721 27.1867 129.174 27.28 128.494 27.28ZM128.794 25.58C129.621 25.58 130.287 25.3467 130.794 24.88C131.301 24.4 131.554 23.7467 131.554 22.92V22.72H128.674C128.127 22.72 127.687 22.84 127.354 23.08C127.021 23.3067 126.854 23.6467 126.854 24.1C126.854 24.5533 127.027 24.9133 127.374 25.18C127.721 25.4467 128.194 25.58 128.794 25.58ZM139.993 27C139.393 27 138.913 26.82 138.553 26.46C138.207 26.1 138.033 25.62 138.033 25.02V18.88H135.313V17.14H138.033V13.88H140.093V17.14H143.033V18.88H140.093V24.66C140.093 25.06 140.28 25.26 140.653 25.26H142.713V27H139.993ZM149.622 27.28C148.622 27.28 147.749 27.0733 147.002 26.66C146.255 26.2333 145.669 25.64 145.242 24.88C144.829 24.1067 144.622 23.2133 144.622 22.2V21.96C144.622 20.9333 144.829 20.04 145.242 19.28C145.655 18.5067 146.229 17.9133 146.962 17.5C147.709 17.0733 148.569 16.86 149.542 16.86C150.489 16.86 151.315 17.0733 152.022 17.5C152.742 17.9133 153.302 18.4933 153.702 19.24C154.102 19.9867 154.302 20.86 154.302 21.86V22.64H146.722C146.749 23.5067 147.035 24.2 147.582 24.72C148.142 25.2267 148.835 25.48 149.662 25.48C150.435 25.48 151.015 25.3067 151.402 24.96C151.802 24.6133 152.109 24.2133 152.322 23.76L154.022 24.64C153.835 25.0133 153.562 25.4067 153.202 25.82C152.855 26.2333 152.395 26.58 151.822 26.86C151.249 27.14 150.515 27.28 149.622 27.28ZM146.742 21.06H152.202C152.149 20.3133 151.882 19.7333 151.402 19.32C150.922 18.8933 150.295 18.68 149.522 18.68C148.749 18.68 148.115 18.8933 147.622 19.32C147.142 19.7333 146.849 20.3133 146.742 21.06ZM166.399 27.28C165.399 27.28 164.526 27.0733 163.779 26.66C163.033 26.2333 162.446 25.64 162.019 24.88C161.606 24.1067 161.399 23.2133 161.399 22.2V21.96C161.399 20.9333 161.606 20.04 162.019 19.28C162.433 18.5067 163.006 17.9133 163.739 17.5C164.486 17.0733 165.346 16.86 166.319 16.86C167.266 16.86 168.093 17.0733 168.799 17.5C169.519 17.9133 170.079 18.4933 170.479 19.24C170.879 19.9867 171.079 20.86 171.079 21.86V22.64H163.499C163.526 23.5067 163.813 24.2 164.359 24.72C164.919 25.2267 165.613 25.48 166.439 25.48C167.213 25.48 167.793 25.3067 168.179 24.96C168.579 24.6133 168.886 24.2133 169.099 23.76L170.799 24.64C170.613 25.0133 170.339 25.4067 169.979 25.82C169.633 26.2333 169.173 26.58 168.599 26.86C168.026 27.14 167.293 27.28 166.399 27.28ZM163.519 21.06H168.979C168.926 20.3133 168.659 19.7333 168.179 19.32C167.699 18.8933 167.073 18.68 166.299 18.68C165.526 18.68 164.893 18.8933 164.399 19.32C163.919 19.7333 163.626 20.3133 163.519 21.06ZM175.507 27L172.187 17.14H174.367L176.987 25.48H177.307L179.927 17.14H182.107L178.787 27H175.507ZM188.294 27.28C187.294 27.28 186.421 27.0733 185.674 26.66C184.927 26.2333 184.341 25.64 183.914 24.88C183.501 24.1067 183.294 23.2133 183.294 22.2V21.96C183.294 20.9333 183.501 20.04 183.914 19.28C184.327 18.5067 184.901 17.9133 185.634 17.5C186.381 17.0733 187.241 16.86 188.214 16.86C189.161 16.86 189.987 17.0733 190.694 17.5C191.414 17.9133 191.974 18.4933 192.374 19.24C192.774 19.9867 192.974 20.86 192.974 21.86V22.64H185.394C185.421 23.5067 185.707 24.2 186.254 24.72C186.814 25.2267 187.507 25.48 188.334 25.48C189.107 25.48 189.687 25.3067 190.074 24.96C190.474 24.6133 190.781 24.2133 190.994 23.76L192.694 24.64C192.507 25.0133 192.234 25.4067 191.874 25.82C191.527 26.2333 191.067 26.58 190.494 26.86C189.921 27.14 189.187 27.28 188.294 27.28ZM185.414 21.06H190.874C190.821 20.3133 190.554 19.7333 190.074 19.32C189.594 18.8933 188.967 18.68 188.194 18.68C187.421 18.68 186.787 18.8933 186.294 19.32C185.814 19.7333 185.521 20.3133 185.414 21.06ZM195.454 27V17.14H197.474V18.62H197.794C197.98 18.22 198.314 17.8467 198.794 17.5C199.274 17.1533 199.987 16.98 200.934 16.98C201.68 16.98 202.34 17.1467 202.914 17.48C203.5 17.8133 203.96 18.2867 204.294 18.9C204.627 19.5 204.794 20.2267 204.794 21.08V27H202.734V21.24C202.734 20.3867 202.52 19.76 202.094 19.36C201.667 18.9467 201.08 18.74 200.334 18.74C199.48 18.74 198.794 19.02 198.274 19.58C197.767 20.14 197.514 20.9533 197.514 22.02V27H195.454ZM211.185 27C210.585 27 210.105 26.82 209.745 26.46C209.398 26.1 209.225 25.62 209.225 25.02V18.88H206.505V17.14H209.225V13.88H211.285V17.14H214.225V18.88H211.285V24.66C211.285 25.06 211.472 25.26 211.845 25.26H213.905V27H211.185Z" fill="#03061F"/>
<path d="M97.328 59.224C95.9947 59.224 94.9333 58.84 94.144 58.072C93.3547 57.2933 92.96 56.1627 92.96 54.68V52.12C92.96 50.6373 93.3547 49.512 94.144 48.744C94.9333 47.9653 95.9947 47.576 97.328 47.576C98.6507 47.576 99.664 47.944 100.368 48.68C101.083 49.416 101.44 50.424 101.44 51.704V51.784H100.112V51.656C100.112 50.8133 99.8827 50.1253 99.424 49.592C98.976 49.048 98.2773 48.776 97.328 48.776C96.3787 48.776 95.6373 49.0693 95.104 49.656C94.5707 50.232 94.304 51.0427 94.304 52.088V54.712C94.304 55.7573 94.5707 56.5733 95.104 57.16C95.6373 57.736 96.3787 58.024 97.328 58.024C98.2773 58.024 98.976 57.7573 99.424 57.224C99.8827 56.68 100.112 55.9867 100.112 55.144V54.888H101.44V55.096C101.44 56.376 101.083 57.384 100.368 58.12C99.664 58.856 98.6507 59.224 97.328 59.224ZM103.594 59V51.176H104.826V52.136H105.05C105.188 51.7947 105.402 51.544 105.69 51.384C105.978 51.224 106.356 51.144 106.826 51.144H107.754V52.296H106.746C106.18 52.296 105.722 52.456 105.37 52.776C105.028 53.0853 104.858 53.5707 104.858 54.232V59H103.594ZM112.928 59.224C112.138 59.224 111.445 59.0587 110.848 58.728C110.25 58.3867 109.786 57.912 109.456 57.304C109.125 56.696 108.96 55.992 108.96 55.192V55C108.96 54.1893 109.125 53.48 109.456 52.872C109.786 52.264 110.245 51.7947 110.832 51.464C111.418 51.1227 112.09 50.952 112.848 50.952C113.584 50.952 114.234 51.112 114.8 51.432C115.365 51.7413 115.808 52.1893 116.128 52.776C116.448 53.3627 116.608 54.0507 116.608 54.84V55.416H110.224C110.256 56.2587 110.528 56.92 111.04 57.4C111.552 57.8693 112.192 58.104 112.96 58.104C113.632 58.104 114.149 57.9493 114.512 57.64C114.874 57.3307 115.152 56.9627 115.344 56.536L116.432 57.064C116.272 57.3947 116.048 57.7253 115.76 58.056C115.482 58.3867 115.114 58.664 114.656 58.888C114.208 59.112 113.632 59.224 112.928 59.224ZM110.24 54.376H115.328C115.285 53.6507 115.034 53.0853 114.576 52.68C114.128 52.2747 113.552 52.072 112.848 52.072C112.133 52.072 111.546 52.2747 111.088 52.68C110.629 53.0853 110.346 53.6507 110.24 54.376ZM121.212 59.224C120.668 59.224 120.172 59.128 119.724 58.936C119.276 58.744 118.924 58.4667 118.668 58.104C118.412 57.7413 118.284 57.2987 118.284 56.776C118.284 56.2427 118.412 55.8053 118.668 55.464C118.924 55.112 119.276 54.8507 119.724 54.68C120.172 54.4987 120.674 54.408 121.228 54.408H123.868V53.832C123.868 53.2773 123.703 52.84 123.372 52.52C123.052 52.2 122.572 52.04 121.932 52.04C121.303 52.04 120.812 52.1947 120.46 52.504C120.108 52.8027 119.868 53.208 119.74 53.72L118.556 53.336C118.684 52.8987 118.887 52.504 119.164 52.152C119.442 51.7893 119.81 51.5013 120.268 51.288C120.738 51.064 121.298 50.952 121.948 50.952C122.951 50.952 123.73 51.2133 124.284 51.736C124.839 52.248 125.116 52.9733 125.116 53.912V57.448C125.116 57.768 125.266 57.928 125.564 57.928H126.284V59H125.18C124.828 59 124.546 58.904 124.332 58.712C124.119 58.5093 124.012 58.2427 124.012 57.912V57.832H123.82C123.703 58.0347 123.543 58.248 123.34 58.472C123.148 58.6853 122.882 58.8613 122.54 59C122.199 59.1493 121.756 59.224 121.212 59.224ZM121.356 58.136C122.103 58.136 122.706 57.9173 123.164 57.48C123.634 57.032 123.868 56.408 123.868 55.608V55.432H121.276C120.775 55.432 120.359 55.544 120.028 55.768C119.708 55.9813 119.548 56.3067 119.548 56.744C119.548 57.1813 119.714 57.5227 120.044 57.768C120.386 58.0133 120.823 58.136 121.356 58.136ZM130.38 59C129.932 59 129.585 58.8773 129.34 58.632C129.105 58.3867 128.988 58.0507 128.988 57.624V52.28H126.636V51.176H128.988V48.392H130.252V51.176H132.812V52.28H130.252V57.432C130.252 57.752 130.407 57.912 130.716 57.912H132.46V59H130.38ZM138.162 59.224C137.373 59.224 136.679 59.0587 136.082 58.728C135.485 58.3867 135.021 57.912 134.69 57.304C134.359 56.696 134.194 55.992 134.194 55.192V55C134.194 54.1893 134.359 53.48 134.69 52.872C135.021 52.264 135.479 51.7947 136.066 51.464C136.653 51.1227 137.325 50.952 138.082 50.952C138.818 50.952 139.469 51.112 140.034 51.432C140.599 51.7413 141.042 52.1893 141.362 52.776C141.682 53.3627 141.842 54.0507 141.842 54.84V55.416H135.458C135.49 56.2587 135.762 56.92 136.274 57.4C136.786 57.8693 137.426 58.104 138.194 58.104C138.866 58.104 139.383 57.9493 139.746 57.64C140.109 57.3307 140.386 56.9627 140.578 56.536L141.666 57.064C141.506 57.3947 141.282 57.7253 140.994 58.056C140.717 58.3867 140.349 58.664 139.89 58.888C139.442 59.112 138.866 59.224 138.162 59.224ZM135.474 54.376H140.562C140.519 53.6507 140.269 53.0853 139.81 52.68C139.362 52.2747 138.786 52.072 138.082 52.072C137.367 52.072 136.781 52.2747 136.322 52.68C135.863 53.0853 135.581 53.6507 135.474 54.376ZM149.1 62.2V61.08H153.58C153.889 61.08 154.044 60.92 154.044 60.6V57.752H153.82C153.713 57.976 153.548 58.2 153.324 58.424C153.111 58.6373 152.828 58.8133 152.476 58.952C152.124 59.08 151.681 59.144 151.148 59.144C150.583 59.144 150.06 59.0213 149.58 58.776C149.111 58.5307 148.737 58.168 148.46 57.688C148.193 57.208 148.06 56.6213 148.06 55.928V51.176H149.324V55.832C149.324 56.6 149.516 57.16 149.9 57.512C150.295 57.864 150.823 58.04 151.484 58.04C152.231 58.04 152.844 57.7947 153.324 57.304C153.804 56.8133 154.044 56.0827 154.044 55.112V51.176H155.308V60.824C155.308 61.2507 155.185 61.5867 154.94 61.832C154.705 62.0773 154.359 62.2 153.9 62.2H149.1ZM161.569 59.224C160.78 59.224 160.081 59.0587 159.473 58.728C158.876 58.3973 158.406 57.9333 158.065 57.336C157.734 56.728 157.569 56.0133 157.569 55.192V54.984C157.569 54.1733 157.734 53.464 158.065 52.856C158.406 52.248 158.876 51.7787 159.473 51.448C160.081 51.1173 160.78 50.952 161.569 50.952C162.358 50.952 163.052 51.1173 163.649 51.448C164.257 51.7787 164.726 52.248 165.057 52.856C165.398 53.464 165.569 54.1733 165.569 54.984V55.192C165.569 56.0133 165.398 56.728 165.057 57.336C164.726 57.9333 164.257 58.3973 163.649 58.728C163.052 59.0587 162.358 59.224 161.569 59.224ZM161.569 58.088C162.401 58.088 163.062 57.8267 163.553 57.304C164.054 56.7707 164.305 56.056 164.305 55.16V55.016C164.305 54.12 164.054 53.4107 163.553 52.888C163.062 52.3547 162.401 52.088 161.569 52.088C160.748 52.088 160.086 52.3547 159.585 52.888C159.084 53.4107 158.833 54.12 158.833 55.016V55.16C158.833 56.056 159.084 56.7707 159.585 57.304C160.086 57.8267 160.748 58.088 161.569 58.088ZM170.836 59.144C170.27 59.144 169.748 59.0213 169.268 58.776C168.798 58.5307 168.425 58.168 168.148 57.688C167.881 57.1973 167.748 56.6053 167.748 55.912V51.176H169.012V55.816C169.012 56.5947 169.204 57.16 169.588 57.512C169.982 57.864 170.51 58.04 171.172 58.04C171.918 58.04 172.532 57.7947 173.012 57.304C173.492 56.8133 173.732 56.0827 173.732 55.112V51.176H174.996V59H173.764V57.672H173.54C173.369 58.0453 173.076 58.3867 172.66 58.696C172.244 58.9947 171.636 59.144 170.836 59.144ZM177.641 59V51.176H178.873V52.136H179.097C179.235 51.7947 179.449 51.544 179.737 51.384C180.025 51.224 180.403 51.144 180.873 51.144H181.801V52.296H180.793C180.227 52.296 179.769 52.456 179.417 52.776C179.075 53.0853 178.905 53.5707 178.905 54.232V59H177.641ZM191.365 59.224C190.576 59.224 189.882 59.0587 189.285 58.728C188.688 58.3867 188.224 57.912 187.893 57.304C187.562 56.696 187.397 55.992 187.397 55.192V55C187.397 54.1893 187.562 53.48 187.893 52.872C188.224 52.264 188.682 51.7947 189.269 51.464C189.856 51.1227 190.528 50.952 191.285 50.952C192.021 50.952 192.672 51.112 193.237 51.432C193.802 51.7413 194.245 52.1893 194.565 52.776C194.885 53.3627 195.045 54.0507 195.045 54.84V55.416H188.661C188.693 56.2587 188.965 56.92 189.477 57.4C189.989 57.8693 190.629 58.104 191.397 58.104C192.069 58.104 192.586 57.9493 192.949 57.64C193.312 57.3307 193.589 56.9627 193.781 56.536L194.869 57.064C194.709 57.3947 194.485 57.7253 194.197 58.056C193.92 58.3867 193.552 58.664 193.093 58.888C192.645 59.112 192.069 59.224 191.365 59.224ZM188.677 54.376H193.765C193.722 53.6507 193.472 53.0853 193.013 52.68C192.565 52.2747 191.989 52.072 191.285 52.072C190.57 52.072 189.984 52.2747 189.525 52.68C189.066 53.0853 188.784 53.6507 188.677 54.376ZM198.921 59L196.121 51.176H197.465L199.817 58.056H200.041L202.393 51.176H203.737L200.937 59H198.921ZM208.834 59.224C208.045 59.224 207.351 59.0587 206.754 58.728C206.157 58.3867 205.693 57.912 205.362 57.304C205.031 56.696 204.866 55.992 204.866 55.192V55C204.866 54.1893 205.031 53.48 205.362 52.872C205.693 52.264 206.151 51.7947 206.738 51.464C207.325 51.1227 207.997 50.952 208.754 50.952C209.49 50.952 210.141 51.112 210.706 51.432C211.271 51.7413 211.714 52.1893 212.034 52.776C212.354 53.3627 212.514 54.0507 212.514 54.84V55.416H206.13C206.162 56.2587 206.434 56.92 206.946 57.4C207.458 57.8693 208.098 58.104 208.866 58.104C209.538 58.104 210.055 57.9493 210.418 57.64C210.781 57.3307 211.058 56.9627 211.25 56.536L212.338 57.064C212.178 57.3947 211.954 57.7253 211.666 58.056C211.389 58.3867 211.021 58.664 210.562 58.888C210.114 59.112 209.538 59.224 208.834 59.224ZM206.146 54.376H211.234C211.191 53.6507 210.941 53.0853 210.482 52.68C210.034 52.2747 209.458 52.072 208.754 52.072C208.039 52.072 207.453 52.2747 206.994 52.68C206.535 53.0853 206.253 53.6507 206.146 54.376ZM214.719 59V51.176H215.951V52.504H216.175C216.345 52.1307 216.633 51.7947 217.039 51.496C217.455 51.1867 218.063 51.032 218.863 51.032C219.449 51.032 219.972 51.1547 220.431 51.4C220.9 51.6453 221.273 52.008 221.551 52.488C221.828 52.968 221.967 53.56 221.967 54.264V59H220.703V54.36C220.703 53.5813 220.505 53.016 220.111 52.664C219.727 52.312 219.204 52.136 218.543 52.136C217.785 52.136 217.167 52.3813 216.687 52.872C216.217 53.3627 215.983 54.0933 215.983 55.064V59H214.719ZM227.192 59C226.744 59 226.398 58.8773 226.152 58.632C225.918 58.3867 225.8 58.0507 225.8 57.624V52.28H223.448V51.176H225.8V48.392H227.064V51.176H229.624V52.28H227.064V57.432C227.064 57.752 227.219 57.912 227.528 57.912H229.272V59H227.192ZM236.869 59L235.301 51.176H236.581L237.877 58.152H238.101L239.813 51.176H241.909L243.621 58.152H243.845L245.141 51.176H246.421L244.853 59H242.693L240.965 52.024H240.757L239.029 59H236.869ZM248.594 59V51.176H249.858V59H248.594ZM249.234 49.96C248.956 49.96 248.722 49.8693 248.53 49.688C248.348 49.5067 248.258 49.2773 248.258 49C248.258 48.712 248.348 48.4773 248.53 48.296C248.722 48.1147 248.956 48.024 249.234 48.024C249.511 48.024 249.74 48.1147 249.922 48.296C250.103 48.4773 250.194 48.712 250.194 49C250.194 49.2773 250.103 49.5067 249.922 49.688C249.74 49.8693 249.511 49.96 249.234 49.96ZM255.396 59C254.948 59 254.601 58.8773 254.356 58.632C254.121 58.3867 254.004 58.0507 254.004 57.624V52.28H251.652V51.176H254.004V48.392H255.268V51.176H257.828V52.28H255.268V57.432C255.268 57.752 255.422 57.912 255.732 57.912H257.476V59H255.396ZM259.875 59V47.8H261.139V52.424H261.363C261.47 52.1893 261.63 51.9707 261.843 51.768C262.067 51.5547 262.35 51.3787 262.691 51.24C263.043 51.1013 263.486 51.032 264.019 51.032C264.606 51.032 265.128 51.16 265.587 51.416C266.056 51.6613 266.43 52.024 266.707 52.504C266.984 52.9733 267.123 53.56 267.123 54.264V59H265.859V54.36C265.859 53.5813 265.662 53.016 265.267 52.664C264.883 52.312 264.36 52.136 263.699 52.136C262.942 52.136 262.323 52.3813 261.843 52.872C261.374 53.3627 261.139 54.0933 261.139 55.064V59H259.875ZM276.949 59.224C275.978 59.224 275.157 59 274.485 58.552C273.823 58.104 273.423 57.3947 273.285 56.424L274.485 56.152C274.57 56.664 274.73 57.0693 274.965 57.368C275.199 57.656 275.487 57.864 275.829 57.992C276.181 58.1093 276.554 58.168 276.949 58.168C277.535 58.168 277.999 58.0507 278.341 57.816C278.682 57.5813 278.853 57.2667 278.853 56.872C278.853 56.4667 278.687 56.184 278.357 56.024C278.037 55.8533 277.594 55.7147 277.029 55.608L276.373 55.496C275.871 55.4107 275.413 55.2773 274.997 55.096C274.581 54.9147 274.25 54.6693 274.005 54.36C273.759 54.0507 273.637 53.6613 273.637 53.192C273.637 52.488 273.909 51.9387 274.453 51.544C274.997 51.1493 275.717 50.952 276.613 50.952C277.498 50.952 278.213 51.1547 278.757 51.56C279.311 51.9547 279.669 52.5147 279.829 53.24L278.645 53.544C278.549 52.9787 278.319 52.584 277.957 52.36C277.594 52.1253 277.146 52.008 276.613 52.008C276.079 52.008 275.658 52.1093 275.349 52.312C275.039 52.504 274.885 52.792 274.885 53.176C274.885 53.5493 275.029 53.8267 275.317 54.008C275.615 54.1787 276.01 54.3067 276.501 54.392L277.157 54.504C277.711 54.6 278.207 54.7333 278.645 54.904C279.093 55.064 279.445 55.2987 279.701 55.608C279.967 55.9173 280.101 56.3227 280.101 56.824C280.101 57.592 279.813 58.184 279.237 58.6C278.671 59.016 277.909 59.224 276.949 59.224ZM282.234 62.2V51.176H283.466V52.472H283.69C283.893 52.0773 284.218 51.7253 284.666 51.416C285.125 51.1067 285.76 50.952 286.57 50.952C287.242 50.952 287.856 51.1173 288.41 51.448C288.976 51.768 289.424 52.2267 289.754 52.824C290.096 53.4213 290.266 54.1413 290.266 54.984V55.192C290.266 56.024 290.101 56.744 289.77 57.352C289.44 57.96 288.992 58.424 288.426 58.744C287.872 59.064 287.253 59.224 286.57 59.224C286.026 59.224 285.562 59.1493 285.178 59C284.805 58.8613 284.501 58.68 284.266 58.456C284.032 58.232 283.85 58.0027 283.722 57.768H283.498V62.2H282.234ZM286.234 58.104C287.045 58.104 287.701 57.848 288.202 57.336C288.714 56.8133 288.97 56.088 288.97 55.16V55.016C288.97 54.088 288.714 53.368 288.202 52.856C287.701 52.3333 287.045 52.072 286.234 52.072C285.434 52.072 284.773 52.3333 284.25 52.856C283.738 53.368 283.482 54.088 283.482 55.016V55.16C283.482 56.088 283.738 56.8133 284.25 57.336C284.773 57.848 285.434 58.104 286.234 58.104ZM296.147 59.224C295.358 59.224 294.659 59.0587 294.051 58.728C293.454 58.3973 292.984 57.9333 292.643 57.336C292.312 56.728 292.147 56.0133 292.147 55.192V54.984C292.147 54.1733 292.312 53.464 292.643 52.856C292.984 52.248 293.454 51.7787 294.051 51.448C294.659 51.1173 295.358 50.952 296.147 50.952C296.936 50.952 297.63 51.1173 298.227 51.448C298.835 51.7787 299.304 52.248 299.635 52.856C299.976 53.464 300.147 54.1733 300.147 54.984V55.192C300.147 56.0133 299.976 56.728 299.635 57.336C299.304 57.9333 298.835 58.3973 298.227 58.728C297.63 59.0587 296.936 59.224 296.147 59.224ZM296.147 58.088C296.979 58.088 297.64 57.8267 298.131 57.304C298.632 56.7707 298.883 56.056 298.883 55.16V55.016C298.883 54.12 298.632 53.4107 298.131 52.888C297.64 52.3547 296.979 52.088 296.147 52.088C295.326 52.088 294.664 52.3547 294.163 52.888C293.662 53.4107 293.411 54.12 293.411 55.016V55.16C293.411 56.056 293.662 56.7707 294.163 57.304C294.664 57.8267 295.326 58.088 296.147 58.088ZM302.422 59V51.176H303.654V52.136H303.878C304.016 51.7947 304.23 51.544 304.518 51.384C304.806 51.224 305.184 51.144 305.654 51.144H306.582V52.296H305.574C305.008 52.296 304.55 52.456 304.198 52.776C303.856 53.0853 303.686 53.5707 303.686 54.232V59H302.422ZM311.333 59C310.885 59 310.538 58.8773 310.293 58.632C310.058 58.3867 309.941 58.0507 309.941 57.624V52.28H307.589V51.176H309.941V48.392H311.205V51.176H313.765V52.28H311.205V57.432C311.205 57.752 311.36 57.912 311.669 57.912H313.413V59H311.333ZM318.964 59.224C317.994 59.224 317.172 59 316.5 58.552C315.839 58.104 315.439 57.3947 315.3 56.424L316.5 56.152C316.586 56.664 316.746 57.0693 316.98 57.368C317.215 57.656 317.503 57.864 317.844 57.992C318.196 58.1093 318.57 58.168 318.964 58.168C319.551 58.168 320.015 58.0507 320.356 57.816C320.698 57.5813 320.868 57.2667 320.868 56.872C320.868 56.4667 320.703 56.184 320.372 56.024C320.052 55.8533 319.61 55.7147 319.044 55.608L318.388 55.496C317.887 55.4107 317.428 55.2773 317.012 55.096C316.596 54.9147 316.266 54.6693 316.02 54.36C315.775 54.0507 315.652 53.6613 315.652 53.192C315.652 52.488 315.924 51.9387 316.468 51.544C317.012 51.1493 317.732 50.952 318.628 50.952C319.514 50.952 320.228 51.1547 320.772 51.56C321.327 51.9547 321.684 52.5147 321.844 53.24L320.66 53.544C320.564 52.9787 320.335 52.584 319.972 52.36C319.61 52.1253 319.162 52.008 318.628 52.008C318.095 52.008 317.674 52.1093 317.364 52.312C317.055 52.504 316.9 52.792 316.9 53.176C316.9 53.5493 317.044 53.8267 317.332 54.008C317.631 54.1787 318.026 54.3067 318.516 54.392L319.172 54.504C319.727 54.6 320.223 54.7333 320.66 54.904C321.108 55.064 321.46 55.2987 321.716 55.608C321.983 55.9173 322.116 56.3227 322.116 56.824C322.116 57.592 321.828 58.184 321.252 58.6C320.687 59.016 319.924 59.224 318.964 59.224ZM324.25 59V51.176H325.482V52.504H325.706C325.877 52.1307 326.165 51.7947 326.57 51.496C326.986 51.1867 327.594 51.032 328.394 51.032C328.981 51.032 329.503 51.1547 329.962 51.4C330.431 51.6453 330.805 52.008 331.082 52.488C331.359 52.968 331.498 53.56 331.498 54.264V59H330.234V54.36C330.234 53.5813 330.037 53.016 329.642 52.664C329.258 52.312 328.735 52.136 328.074 52.136C327.317 52.136 326.698 52.3813 326.218 52.872C325.749 53.3627 325.514 54.0933 325.514 55.064V59H324.25ZM334.75 59.224C334.441 59.224 334.18 59.1227 333.966 58.92C333.764 58.7173 333.662 58.456 333.662 58.136C333.662 57.816 333.764 57.5547 333.966 57.352C334.18 57.1493 334.441 57.048 334.75 57.048C335.07 57.048 335.332 57.1493 335.534 57.352C335.737 57.5547 335.838 57.816 335.838 58.136C335.838 58.456 335.737 58.7173 335.534 58.92C335.332 59.1227 335.07 59.224 334.75 59.224ZM338.797 59.224C338.488 59.224 338.227 59.1227 338.013 58.92C337.811 58.7173 337.709 58.456 337.709 58.136C337.709 57.816 337.811 57.5547 338.013 57.352C338.227 57.1493 338.488 57.048 338.797 57.048C339.117 57.048 339.379 57.1493 339.581 57.352C339.784 57.5547 339.885 57.816 339.885 58.136C339.885 58.456 339.784 58.7173 339.581 58.92C339.379 59.1227 339.117 59.224 338.797 59.224ZM342.844 59.224C342.535 59.224 342.273 59.1227 342.06 58.92C341.857 58.7173 341.756 58.456 341.756 58.136C341.756 57.816 341.857 57.5547 342.06 57.352C342.273 57.1493 342.535 57.048 342.844 57.048C343.164 57.048 343.425 57.1493 343.628 57.352C343.831 57.5547 343.932 57.816 343.932 58.136C343.932 58.456 343.831 58.7173 343.628 58.92C343.425 59.1227 343.164 59.224 342.844 59.224Z" fill="#4E5061"/>
</svg>
