<svg width="24" height="24" viewBox="0 0 24 24" fill="none" xmlns="http://www.w3.org/2000/svg">
<path d="M3.25 4.5H21.25C22.249 4.5 23 5.2488 23 6.10227V17.3144C23 18.1679 22.249 18.9167 21.25 18.9167H3.25C2.25098 18.9167 1.5 18.1679 1.5 17.3144V6.10227C1.5 5.2488 2.25098 4.5 3.25 4.5Z" stroke="#283299"/>
<path d="M12.75 11C14.1307 11 15.25 9.88071 15.25 8.5C15.25 7.11929 14.1307 6 12.75 6C11.3693 6 10.25 7.11929 10.25 8.5C10.25 9.88071 11.3693 11 12.75 11Z" fill="#283299"/>
<path d="M16.8875 17.4762V14.9175C16.8331 14.3501 16.5699 13.828 16.1544 13.4634C15.7389 13.0989 15.2044 12.9211 14.666 12.9684H10.2215C9.68309 12.9211 9.14861 13.0989 8.73312 13.4634C8.31763 13.828 8.05437 14.3501 8 14.9175V17.4762" stroke="#283299" stroke-width="1.5" stroke-linecap="round" stroke-linejoin="round"/>
</svg>
